<svg xmlns="http://www.w3.org/2000/svg" viewBox="0 0 611.6 206.4"><title>bogroup_ltd_logo</title><rect width="611.6" height="206.41" fill="none"/><path d="M228,92.2c0-4.6-3.2-7.4-7.2-8.1h0c3.4-1.2,5.7-3.7,5.7-7.6,0-7.1-6.5-9-11.9-9h-14v35h14C221.3,102.4,228,99.9,228,92.2Zm-9.6-14.7c0,2.5-1.9,3.8-5,3.8h-4.6V74.1H213C216.5,74.1,218.4,75.1,218.4,77.5Zm1.1,13.9c0,3.5-3.3,4.2-6,4.2h-4.7v-8h4.7c3.6,0,6,.9,6,3.8Z"/><rect x="233.2" y="65" width="8.2" height="37.45"/><path d="M262.4,92.5c0,3.1-1.8,5.1-5.1,5.1-1.6,0-3.5-.7-3.5-2.5s4-3.4,7.6-3.4h1Zm-10.8-7a9.9,9.9,0,0,1,6.1-2.5c2.6,0,4.5,1.2,4.5,3.6V87c-7.2,0-15.9,1.2-15.9,8.3s5.1,7.7,9,7.7,5.8-1.2,7-3.2h.1v2.6h7.5V90c0-9-3.1-13-11.4-13a16.3,16.3,0,0,0-11,4.1l4.1,4.4Z"/><path d="M297.6,80.3c-1.9-2-5.6-3.3-9.2-3.3-7.6,0-13.7,5.1-13.7,13.1s6,13.1,13.8,13.1c3.6,0,7.1-1.2,9.1-3.1l-4.5-5.5a5.9,5.9,0,0,1-4.4,1.8c-3.6,0-5.8-2.9-5.8-6.3s2.3-6.3,5.7-6.3a6,6,0,0,1,4.3,1.9l4.7-5.4Z"/><path d="M317.4,88.9l9.5-11.1h-9.8l-7.9,10h-.1V65h-8.2v37.4h8.2V90.6h.1l8.1,11.8h10l-9.9-13.5Z"/><path d="M379.7,84.8c0-11.3-8.1-18.4-19.1-18.4s-19.1,7.1-19.1,18.4,8.1,18.6,19.1,18.6S379.7,95.9,379.7,84.8Zm-9.1,0c0,6.3-4.1,10.9-10,10.9s-10-4.6-10-10.9,4-10.7,10-10.7S370.6,78.6,370.6,84.8Z"/><path d="M401.2,77.3a4.4,4.4,0,0,0-1.7-.2,7.4,7.4,0,0,0-6.7,4.2h-.1V77.8h-7.8v24.6H393V89.8a5.5,5.5,0,0,1,5.8-5.6,7.1,7.1,0,0,1,2,.2l.4-7.1Z"/><path d="M425.3,80.3c-2-2-5.7-3.3-9.2-3.3-7.7,0-13.8,5.1-13.8,13.1s6.1,13.1,13.9,13.1a13.9,13.9,0,0,0,9.1-3.1l-4.5-5.5a5.9,5.9,0,0,1-4.4,1.8c-3.6,0-5.8-2.9-5.8-6.3s2.2-6.3,5.7-6.3a6,6,0,0,1,4.3,1.9l4.7-5.4Z"/><path d="M452.9,102.4V87.2c0-5-2.3-10.1-9-10.1a8.1,8.1,0,0,0-7.1,3.8h-.1V65h-8.1v37.4h8.1V89.1c0-2.9,1.6-5.2,4.4-5.2s3.6,2.4,3.6,5.2v13.3Z"/><path d="M473.6,92.5c0,3.1-1.8,5.1-5.1,5.1-1.6,0-3.5-.7-3.5-2.5s4-3.4,7.6-3.4h1Zm-10.8-7a9.9,9.9,0,0,1,6.1-2.5c2.5,0,4.5,1.2,4.5,3.6V87c-7.2,0-15.9,1.2-15.9,8.3s5.1,7.7,9,7.7,5.7-1.2,7-3.2h.1v2.6h7.5V90c0-9-3.1-13-11.4-13a16.3,16.3,0,0,0-11,4.1l4.1,4.4Z"/><path d="M503.4,77.3a4.2,4.2,0,0,0-1.7-.2,7.6,7.6,0,0,0-6.7,4.2h-.1V77.8h-7.8v24.6h8.1V89.8a5.6,5.6,0,0,1,5.8-5.6,7.5,7.5,0,0,1,2.1.2l.3-7.1Z"/><path d="M532,102.4V65h-8.1V80.4h-.1a10.1,10.1,0,0,0-7.6-3.3c-7.2,0-11.6,6-11.6,12.9s4.3,13.1,11.7,13.1c3.3,0,6.5-1.4,8.1-3.9h.1v3.2Zm-7.8-12.3a6.1,6.1,0,0,1-5.9,6.3c-3.9,0-5.9-3.2-5.9-6.4s2-6.3,5.9-6.3S524.2,86.9,524.2,90.1Z"/><path d="M211.7,139.8v-3.7h-6.8V122.3h-4.3v17.5Z"/><path d="M224.2,125.9v-3.6H210v3.6h5v13.9h4.2V125.9Z"/><path d="M242.5,131c0-6.7-5.1-8.7-10.1-8.7h-6.3v17.5h6.5C237.5,139.8,242.5,137.1,242.5,131Zm-4.5,0c0,3.9-2.8,5.1-5.8,5.1h-2V125.9h2.1C235.2,125.9,238,127,238,131Z"/><circle cx="88.4" cy="100.2" r="45.4" fill="none" stroke="#000" stroke-linecap="round" stroke-linejoin="round" stroke-width="20.64"/><path d="M96.7,100.2S95,85.4,99,74.5c2.1-5.7,10.2-17.1,23.5-19.7s17.3-4.2,19.6-5.2,9.6-4,19.6-13.4c0,0,.6,9.8-3.1,18.6s-10.5,17.9-16.5,21.7-15.7,4.1-19.6,5.1C116.5,83.3,101.5,85.2,96.7,100.2Z" fill="#ccc" fill-rule="evenodd"/></svg>