<?xml version="1.0" encoding="utf-8"?>
<!-- Generator: Adobe Illustrator 24.0.1, SVG Export Plug-In . SVG Version: 6.00 Build 0)  -->
<svg version="1.1" id="Layer_1" xmlns:serif="http://www.serif.com/"
	 xmlns="http://www.w3.org/2000/svg" xmlns:xlink="http://www.w3.org/1999/xlink" x="0px" y="0px" viewBox="0 0 611.3 428.2"
	 style="enable-background:new 0 0 611.3 428.2;" xml:space="preserve">
<style type="text/css">
	.st0{fill:none;}
	.st1{fill:none;stroke:#000000;stroke-width:1.4417;stroke-linecap:square;stroke-miterlimit:1.0813;}
</style>
<rect id="Artboard2" class="st0" width="611.3" height="428.2"/>
<g>
	<rect x="220" y="71.7" class="st1" width="161.1" height="30.1"/>
	<path d="M296.3,84.1c-0.7-1-2.1-1.4-3.3-1.4c-2.8,0-5,1.9-5,4.8c0,2.9,2,4.9,4.9,4.9c1.6,0,2.8-0.6,3.6-1.6l-1.3-0.9
		c-0.5,0.6-1.2,1.1-2.2,1.1c-1.9,0-3.1-1.4-3.1-3.4c0-1.9,1.3-3.4,3.2-3.4c0.7,0,1.6,0.3,2.1,0.9L296.3,84.1z"/>
	<path d="M297.4,92.1h6.3v-1.5h-4.7v-2.6h4.2v-1.4h-4.2v-2.3h4.5v-1.4h-6.1L297.4,92.1L297.4,92.1z"/>
	<path d="M304.9,87.5c0,2.9,2.1,4.9,4.9,4.9c2.9,0,5-2,5-4.9c0-2.9-2.1-4.8-5-4.8C307,82.7,304.9,84.5,304.9,87.5z M306.7,87.5
		c0-1.9,1.3-3.4,3.2-3.4c1.9,0,3.2,1.5,3.2,3.4c0,2-1.3,3.4-3.2,3.4C308,90.9,306.7,89.4,306.7,87.5z"/>
</g>
<g>
	<rect x="332.5" y="148.9" class="st1" width="224.5" height="30.1"/>
	<path d="M341,169.3h6.3v-1.5h-4.7v-2.6h4.2v-1.4h-4.2v-2.3h4.5v-1.4H341L341,169.3L341,169.3z"/>
	<path d="M347.9,169.3h1.8l1.6-2.3l1.6,2.3h1.9l-2.5-3.3l2.2-2.9h-1.8l-1.4,1.9l-1.3-1.9h-1.9l2.2,2.9L347.9,169.3z"/>
	<path d="M356.8,165.6c0.1-0.9,0.8-1.5,1.7-1.5c1,0,1.5,0.7,1.5,1.5H356.8z M361.6,166.3c0-2.2-1.3-3.4-3-3.4
		c-1.9,0-3.3,1.3-3.3,3.3c0,2,1.4,3.3,3.3,3.3c1.2,0,2.1-0.4,2.7-1.2l-1-0.8c-0.4,0.5-0.9,0.8-1.6,0.8c-0.9,0-1.7-0.6-1.8-1.5h4.7
		C361.6,166.5,361.6,166.4,361.6,166.3L361.6,166.3z"/>
	<path d="M368.4,163.9c-0.5-0.6-1.4-1-2.3-1c-1.8,0-3.3,1.3-3.3,3.3c0,2.1,1.5,3.3,3.4,3.3c0.9,0,1.8-0.3,2.3-0.9l-1-1
		c-0.3,0.4-0.8,0.6-1.3,0.6c-1.2,0-1.8-1-1.8-2c0-1,0.6-2,1.7-2c0.5,0,1,0.3,1.3,0.6L368.4,163.9L368.4,163.9z"/>
	<path d="M375.1,163.1h-1.6v3.4c0,0.8-0.5,1.7-1.5,1.7c-1,0-1.2-0.9-1.2-1.7v-3.5h-1.6v3.9c0,1.3,0.7,2.5,2.3,2.5
		c0.9,0,1.7-0.6,1.9-1.2h0v1h1.5L375.1,163.1L375.1,163.1z"/>
	<path d="M377.2,164.3v2.9c0,1.2,0.4,2.2,2,2.2c0.4,0,0.8-0.1,1-0.2l-0.1-1.2c-0.2,0.1-0.5,0.1-0.7,0.1c-0.7,0-0.8-0.4-0.8-1v-2.9
		h1.6v-1.2h-1.6v-1.8h-1.5v1.8h-1.1v1.2H377.2z"/>
	<path d="M381.4,169.3h1.6v-6.2h-1.6V169.3z M381.2,161c0,0.5,0.4,0.9,1,0.9c0.6,0,1-0.4,1-0.9c0-0.5-0.4-0.9-1-0.9
		C381.6,160,381.2,160.5,381.2,161z"/>
	<path d="M386.5,169.3h1.7l2.5-6.2h-1.6l-1.6,4.5h0l-1.6-4.5h-1.7L386.5,169.3L386.5,169.3z"/>
	<path d="M392.7,165.6c0.1-0.9,0.8-1.5,1.7-1.5c1,0,1.5,0.7,1.5,1.5H392.7z M397.5,166.3c0-2.2-1.3-3.4-3-3.4
		c-1.9,0-3.3,1.3-3.3,3.3c0,2,1.4,3.3,3.3,3.3c1.2,0,2.1-0.4,2.7-1.2l-1-0.8c-0.4,0.5-0.9,0.8-1.6,0.8c-0.9,0-1.7-0.6-1.8-1.5h4.7
		C397.5,166.5,397.5,166.4,397.5,166.3L397.5,166.3z"/>
	<path d="M402.3,169.3h3.3c2.4,0,5.1-1.4,5.1-4.6c0-3.5-2.7-4.6-5.1-4.6h-3.3V169.3z M403.9,167.9v-6.4h1.4c1.7,0,3.6,0.6,3.6,3.2
		c0,2.5-1.9,3.2-3.6,3.2H403.9z"/>
	<path d="M412.2,169.3h1.6v-6.2h-1.6V169.3z M411.9,161c0,0.5,0.4,0.9,1,0.9c0.6,0,1-0.4,1-0.9c0-0.5-0.4-0.9-1-0.9
		C412.4,160,411.9,160.5,411.9,161z"/>
	<path d="M415.6,169.3h1.6V166c0-0.5,0.3-1.7,1.7-1.7c0.1,0,0.3,0,0.5,0.1v-1.4c-0.1,0-0.3,0-0.4,0c-0.8,0-1.5,0.5-1.8,1.2h0v-1
		h-1.5L415.6,169.3L415.6,169.3z"/>
	<path d="M421.3,165.6c0.1-0.9,0.8-1.5,1.7-1.5c1,0,1.5,0.7,1.5,1.5H421.3z M426,166.3c0-2.2-1.3-3.4-3-3.4c-1.9,0-3.3,1.3-3.3,3.3
		c0,2,1.4,3.3,3.3,3.3c1.2,0,2.1-0.4,2.7-1.2l-1-0.8c-0.4,0.5-0.9,0.8-1.6,0.8c-0.9,0-1.7-0.6-1.8-1.5h4.7
		C426,166.5,426,166.4,426,166.3L426,166.3z"/>
	<path d="M432.9,163.9c-0.5-0.6-1.4-1-2.3-1c-1.8,0-3.3,1.3-3.3,3.3c0,2.1,1.5,3.3,3.4,3.3c0.9,0,1.8-0.3,2.3-0.9l-1-1
		c-0.3,0.4-0.8,0.6-1.3,0.6c-1.2,0-1.8-1-1.8-2c0-1,0.6-2,1.7-2c0.5,0,1,0.3,1.3,0.6L432.9,163.9L432.9,163.9z"/>
	<path d="M434.1,164.3v2.9c0,1.2,0.4,2.2,2,2.2c0.4,0,0.8-0.1,1-0.2l-0.1-1.2c-0.2,0.1-0.5,0.1-0.7,0.1c-0.7,0-0.8-0.4-0.8-1v-2.9
		h1.6v-1.2h-1.6v-1.8h-1.5v1.8H433v1.2H434.1z"/>
	<path d="M437.9,166.2c0,2,1.5,3.3,3.4,3.3s3.4-1.4,3.4-3.3c0-2-1.5-3.3-3.4-3.3S437.9,164.2,437.9,166.2z M439.5,166.2
		c0-1,0.6-2,1.8-2s1.8,1,1.8,2c0,1-0.6,2-1.8,2S439.5,167.1,439.5,166.2z"/>
	<path d="M446.2,169.3h1.6V166c0-0.5,0.3-1.7,1.7-1.7c0.1,0,0.3,0,0.5,0.1v-1.4c-0.1,0-0.3,0-0.4,0c-0.8,0-1.5,0.5-1.8,1.2h0v-1
		h-1.5L446.2,169.3L446.2,169.3z"/>
	<path d="M449.7,170.9h1.3l1.1-3.4h-1.5L449.7,170.9L449.7,170.9z"/>
	<path d="M455.3,169.3h1.8l0.8-2.1h4l0.9,2.1h1.9l-4-9.2h-1.4L455.3,169.3z M458.5,165.8l1.4-3.7l1.4,3.7H458.5z"/>
	<path d="M471.8,159.5h-1.6v4.4h0c-0.3-0.4-0.9-1-2.1-1c-1.8,0-3,1.4-3,3.3c0,1.8,1.2,3.3,3.1,3.3c0.9,0,1.7-0.4,2.1-1.1h0v0.9h1.5
		V159.5L471.8,159.5z M466.7,166.2c0-1,0.6-2,1.8-2c1.1,0,1.8,1.1,1.8,2c0,1-0.7,2-1.8,2C467.2,168.2,466.7,167.1,466.7,166.2z"/>
	<path d="M481.1,162.9c-0.9,0-1.6,0.4-2.1,1.2c-0.3-0.7-1-1.2-1.9-1.2c-1,0-1.7,0.6-1.9,1.2h0v-1h-1.5v6.2h1.6v-3.4
		c0-0.8,0.4-1.7,1.4-1.7c0.8,0,1.2,0.6,1.2,1.3v3.8h1.6v-3.4c0-0.8,0.4-1.7,1.4-1.7c1,0,1.2,0.9,1.2,1.7v3.5h1.6v-3.9
		C483.4,164.1,482.7,162.9,481.1,162.9L481.1,162.9z"/>
	<path d="M485.3,169.3h1.6v-6.2h-1.6V169.3z M485,161c0,0.5,0.4,0.9,1,0.9c0.6,0,1-0.4,1-0.9c0-0.5-0.4-0.9-1-0.9
		C485.5,160,485,160.5,485,161z"/>
	<path d="M488.7,169.3h1.6v-3.4c0-0.8,0.5-1.7,1.5-1.7c1,0,1.2,0.9,1.2,1.7v3.5h1.6v-3.9c0-1.3-0.7-2.5-2.3-2.5
		c-0.9,0-1.7,0.6-1.9,1.2h0v-1h-1.5V169.3L488.7,169.3z"/>
	<path d="M500.3,159.9l-1.1-0.4l-4,10.1l1.1,0.4L500.3,159.9z"/>
	<path d="M501.4,169.3h1.6v-3.9h4v-1.4h-4v-2.5h4.3v-1.4h-5.9V169.3z"/>
	<path d="M508.5,169.3h1.6v-6.2h-1.6V169.3z M508.3,161c0,0.5,0.4,0.9,1,0.9c0.6,0,1-0.4,1-0.9c0-0.5-0.4-0.9-1-0.9
		C508.7,160,508.3,160.5,508.3,161z"/>
	<path d="M512,169.3h1.6v-3.4c0-0.8,0.5-1.7,1.5-1.7c1,0,1.2,0.9,1.2,1.7v3.5h1.6v-3.9c0-1.3-0.7-2.5-2.3-2.5
		c-0.9,0-1.7,0.6-1.9,1.2h0v-1H512V169.3L512,169.3z"/>
	<path d="M523.4,169.3h1.5v-3.8c0-1.2-0.5-2.6-2.8-2.6c-0.9,0-1.9,0.3-2.6,1l0.8,0.9c0.4-0.4,1-0.7,1.7-0.7c0.8,0,1.4,0.4,1.4,1.1
		v0.2c-1.9,0-4.3,0.3-4.3,2.1c0,1.5,1.3,1.9,2.3,1.9c0.9,0,1.6-0.4,1.9-0.9h0L523.4,169.3L523.4,169.3z M523.4,166.7
		c0,1-0.6,1.6-1.6,1.6c-0.5,0-1.1-0.2-1.1-0.8c0-0.9,1.4-1,2.4-1h0.4V166.7L523.4,166.7z"/>
	<path d="M526.7,169.3h1.6v-3.4c0-0.8,0.5-1.7,1.5-1.7c1,0,1.2,0.9,1.2,1.7v3.5h1.6v-3.9c0-1.3-0.7-2.5-2.3-2.5
		c-0.9,0-1.7,0.6-1.9,1.2h0v-1h-1.5V169.3L526.7,169.3z"/>
	<path d="M539.5,163.9c-0.5-0.6-1.4-1-2.3-1c-1.8,0-3.3,1.3-3.3,3.3c0,2.1,1.5,3.3,3.4,3.3c0.9,0,1.8-0.3,2.3-0.9l-1-1
		c-0.3,0.4-0.8,0.6-1.3,0.6c-1.2,0-1.8-1-1.8-2c0-1,0.6-2,1.7-2c0.5,0,1,0.3,1.3,0.6L539.5,163.9L539.5,163.9z"/>
	<path d="M541.8,165.6c0.1-0.9,0.8-1.5,1.7-1.5c1,0,1.5,0.7,1.5,1.5H541.8z M546.5,166.3c0-2.2-1.3-3.4-3-3.4
		c-1.9,0-3.3,1.3-3.3,3.3c0,2,1.4,3.3,3.3,3.3c1.2,0,2.1-0.4,2.7-1.2l-1-0.8c-0.4,0.5-0.9,0.8-1.6,0.8c-0.9,0-1.7-0.6-1.8-1.5h4.7
		C546.5,166.5,546.5,166.4,546.5,166.3L546.5,166.3z"/>
</g>
<g>
	<rect x="67.2" y="148.9" class="st1" width="192.8" height="30.1"/>
	<path d="M82,169.3h6.3v-1.5h-4.7v-2.6h4.2v-1.4h-4.2v-2.3h4.5v-1.4H82V169.3z"/>
	<path d="M88.9,169.3h1.8l1.6-2.3l1.6,2.3h1.9l-2.5-3.3l2.2-2.9h-1.8l-1.4,1.9l-1.3-1.9h-1.9l2.2,2.9L88.9,169.3z"/>
	<path d="M97.9,165.6c0.1-0.9,0.8-1.5,1.7-1.5c1,0,1.5,0.7,1.5,1.5H97.9L97.9,165.6z M102.6,166.3c0-2.2-1.3-3.4-3-3.4
		c-1.9,0-3.3,1.3-3.3,3.3c0,2,1.4,3.3,3.3,3.3c1.2,0,2.1-0.4,2.7-1.2l-1-0.8c-0.4,0.5-0.9,0.8-1.6,0.8c-0.9,0-1.7-0.6-1.8-1.5h4.7
		C102.6,166.5,102.6,166.4,102.6,166.3L102.6,166.3z"/>
	<path d="M109.4,163.9c-0.5-0.6-1.4-1-2.3-1c-1.8,0-3.3,1.3-3.3,3.3c0,2.1,1.5,3.3,3.4,3.3c0.9,0,1.8-0.3,2.3-0.9l-1-1
		c-0.3,0.4-0.8,0.6-1.3,0.6c-1.2,0-1.8-1-1.8-2c0-1,0.6-2,1.7-2c0.5,0,1,0.3,1.3,0.6L109.4,163.9L109.4,163.9z"/>
	<path d="M116.1,163.1h-1.6v3.4c0,0.8-0.5,1.7-1.5,1.7c-1,0-1.2-0.9-1.2-1.7v-3.5h-1.6v3.9c0,1.3,0.7,2.5,2.3,2.5
		c0.9,0,1.7-0.6,1.9-1.2h0v1h1.5L116.1,163.1L116.1,163.1z"/>
	<path d="M118.2,164.3v2.9c0,1.2,0.4,2.2,2,2.2c0.4,0,0.8-0.1,1-0.2l-0.1-1.2c-0.2,0.1-0.5,0.1-0.7,0.1c-0.7,0-0.8-0.4-0.8-1v-2.9
		h1.6v-1.2h-1.6v-1.8h-1.5v1.8h-1.1v1.2H118.2z"/>
	<path d="M122.4,169.3h1.6v-6.2h-1.6V169.3z M122.2,161c0,0.5,0.4,0.9,1,0.9c0.6,0,1-0.4,1-0.9c0-0.5-0.4-0.9-1-0.9
		C122.6,160,122.2,160.5,122.2,161z"/>
	<path d="M127.5,169.3h1.7l2.5-6.2H130l-1.6,4.5h0l-1.6-4.5H125L127.5,169.3z"/>
	<path d="M133.7,165.6c0.1-0.9,0.8-1.5,1.7-1.5c1,0,1.5,0.7,1.5,1.5H133.7L133.7,165.6z M138.5,166.3c0-2.2-1.3-3.4-3-3.4
		c-1.9,0-3.3,1.3-3.3,3.3c0,2,1.4,3.3,3.3,3.3c1.2,0,2.1-0.4,2.7-1.2l-1-0.8c-0.4,0.5-0.9,0.8-1.6,0.8c-0.9,0-1.7-0.6-1.8-1.5h4.7
		C138.5,166.5,138.5,166.4,138.5,166.3L138.5,166.3z"/>
	<path d="M143.3,169.3h3.3c2.4,0,5.1-1.4,5.1-4.6c0-3.5-2.7-4.6-5.1-4.6h-3.3V169.3z M145,167.9v-6.4h1.4c1.7,0,3.6,0.6,3.6,3.2
		c0,2.5-1.9,3.2-3.6,3.2H145z"/>
	<path d="M153.2,169.3h1.6v-6.2h-1.6V169.3z M153,161c0,0.5,0.4,0.9,1,0.9c0.6,0,1-0.4,1-0.9c0-0.5-0.4-0.9-1-0.9
		C153.4,160,153,160.5,153,161z"/>
	<path d="M156.6,169.3h1.6V166c0-0.5,0.3-1.7,1.7-1.7c0.1,0,0.3,0,0.5,0.1v-1.4c-0.1,0-0.3,0-0.4,0c-0.8,0-1.5,0.5-1.8,1.2h0v-1
		h-1.5L156.6,169.3L156.6,169.3z"/>
	<path d="M162.3,165.6c0.1-0.9,0.8-1.5,1.7-1.5c1,0,1.5,0.7,1.5,1.5H162.3L162.3,165.6z M167.1,166.3c0-2.2-1.3-3.4-3-3.4
		c-1.9,0-3.3,1.3-3.3,3.3c0,2,1.4,3.3,3.3,3.3c1.2,0,2.1-0.4,2.7-1.2l-1-0.8c-0.4,0.5-0.9,0.8-1.6,0.8c-0.9,0-1.7-0.6-1.8-1.5h4.7
		C167.1,166.5,167.1,166.4,167.1,166.3L167.1,166.3z"/>
	<path d="M173.9,163.9c-0.5-0.6-1.4-1-2.3-1c-1.8,0-3.3,1.3-3.3,3.3c0,2.1,1.5,3.3,3.4,3.3c0.9,0,1.8-0.3,2.3-0.9l-1-1
		c-0.3,0.4-0.8,0.6-1.3,0.6c-1.2,0-1.8-1-1.8-2c0-1,0.6-2,1.7-2c0.5,0,1,0.3,1.3,0.6L173.9,163.9L173.9,163.9z"/>
	<path d="M175.1,164.3v2.9c0,1.2,0.4,2.2,2,2.2c0.4,0,0.8-0.1,1-0.2l-0.1-1.2c-0.2,0.1-0.5,0.1-0.7,0.1c-0.7,0-0.8-0.4-0.8-1v-2.9
		h1.6v-1.2h-1.6v-1.8h-1.5v1.8H174v1.2H175.1z"/>
	<path d="M179,166.2c0,2,1.5,3.3,3.4,3.3c1.9,0,3.4-1.4,3.4-3.3c0-2-1.5-3.3-3.4-3.3S179,164.2,179,166.2L179,166.2z M180.5,166.2
		c0-1,0.6-2,1.8-2s1.8,1,1.8,2c0,1-0.6,2-1.8,2S180.5,167.1,180.5,166.2z"/>
	<path d="M187.2,169.3h1.6V166c0-0.5,0.3-1.7,1.7-1.7c0.1,0,0.3,0,0.5,0.1v-1.4c-0.1,0-0.3,0-0.4,0c-0.8,0-1.5,0.5-1.8,1.2h0v-1
		h-1.5L187.2,169.3L187.2,169.3z"/>
	<path d="M190.7,170.9h1.3l1.1-3.4h-1.5L190.7,170.9L190.7,170.9z"/>
	<path d="M197.6,169.3h1.6v-3.8h1.3c1.9,0,3.6-0.7,3.6-2.7c0-1.9-1.4-2.7-3.5-2.7h-3V169.3L197.6,169.3z M199.3,164.1v-2.6h1.2
		c1,0,2,0.2,2,1.3s-1,1.4-2,1.4L199.3,164.1L199.3,164.1z"/>
	<path d="M204.9,169.3h1.6V166c0-0.5,0.3-1.7,1.7-1.7c0.1,0,0.3,0,0.5,0.1v-1.4c-0.1,0-0.3,0-0.4,0c-0.8,0-1.5,0.5-1.8,1.2h0v-1
		h-1.5L204.9,169.3L204.9,169.3z"/>
	<path d="M209,166.2c0,2,1.5,3.3,3.4,3.3s3.4-1.4,3.4-3.3c0-2-1.5-3.3-3.4-3.3S209,164.2,209,166.2z M210.6,166.2c0-1,0.6-2,1.8-2
		s1.8,1,1.8,2c0,1-0.6,2-1.8,2S210.6,167.1,210.6,166.2z"/>
	<path d="M217.3,163.1v6.7c0,0.7-0.1,1.3-0.8,1.3c-0.1,0-0.3,0-0.4-0.1l-0.1,1.3c0.2,0,0.4,0.1,0.7,0.1c1.9,0,2.3-1.2,2.3-2.7v-6.6
		L217.3,163.1L217.3,163.1z M217.1,161c0,0.5,0.4,0.9,1,0.9c0.6,0,1-0.4,1-0.9c0-0.5-0.4-0.9-1-0.9C217.5,160,217.1,160.5,217.1,161
		z"/>
	<path d="M222,165.6c0.1-0.9,0.8-1.5,1.7-1.5c1,0,1.5,0.7,1.5,1.5H222z M226.7,166.3c0-2.2-1.3-3.4-3-3.4c-1.9,0-3.3,1.3-3.3,3.3
		c0,2,1.4,3.3,3.3,3.3c1.2,0,2.1-0.4,2.7-1.2l-1-0.8c-0.4,0.5-0.9,0.8-1.6,0.8c-0.9,0-1.7-0.6-1.8-1.5h4.7
		C226.7,166.5,226.7,166.4,226.7,166.3L226.7,166.3z"/>
	<path d="M233.5,163.9c-0.5-0.6-1.4-1-2.3-1c-1.8,0-3.3,1.3-3.3,3.3c0,2.1,1.5,3.3,3.4,3.3c0.9,0,1.8-0.3,2.3-0.9l-1-1
		c-0.3,0.4-0.8,0.6-1.3,0.6c-1.2,0-1.8-1-1.8-2c0-1,0.6-2,1.7-2c0.5,0,1,0.3,1.3,0.6L233.5,163.9L233.5,163.9z"/>
	<path d="M234.7,164.3v2.9c0,1.2,0.4,2.2,2,2.2c0.4,0,0.8-0.1,1-0.2l-0.1-1.2c-0.2,0.1-0.5,0.1-0.7,0.1c-0.7,0-0.8-0.4-0.8-1v-2.9
		h1.6v-1.2h-1.6v-1.8h-1.5v1.8h-1.1v1.2H234.7z"/>
	<path d="M243.4,163.8c-0.5-0.6-1.4-0.9-2.3-0.9c-1.2,0-2.5,0.6-2.5,2c0,1.2,0.9,1.5,1.8,1.8c0.9,0.2,1.4,0.4,1.4,0.9
		c0,0.6-0.5,0.7-1,0.7c-0.7,0-1.3-0.3-1.6-0.8l-1,1c0.6,0.7,1.6,1,2.6,1c1.4,0,2.6-0.6,2.6-2.1c0-1.2-1.1-1.6-2-1.9
		c-0.9-0.2-1.4-0.3-1.4-0.8c0-0.5,0.5-0.7,1-0.7c0.6,0,1.1,0.3,1.4,0.7L243.4,163.8L243.4,163.8z"/>
</g>
<g>
	<rect x="29.7" y="247.8" class="st1" width="94.8" height="30.1"/>
	<path d="M49.6,260.1c-0.7-1-2.1-1.4-3.3-1.4c-2.8,0-5,1.9-5,4.8c0,2.9,2,4.9,4.9,4.9c1.6,0,2.8-0.6,3.6-1.6l-1.3-0.9
		c-0.5,0.6-1.2,1.1-2.2,1.1c-1.9,0-3.1-1.4-3.1-3.4c0-1.9,1.3-3.4,3.2-3.4c0.7,0,1.6,0.3,2.1,0.9C48.3,261.1,49.6,260.1,49.6,260.1z
		"/>
	<path d="M50.1,265c0,2,1.5,3.3,3.4,3.3c1.9,0,3.4-1.4,3.4-3.3c0-2-1.5-3.3-3.4-3.3C51.6,261.7,50.1,263,50.1,265z M51.7,265
		c0-1,0.6-2,1.8-2c1.2,0,1.8,1,1.8,2c0,1-0.6,2-1.8,2C52.3,267,51.7,266,51.7,265z"/>
	<path d="M58.4,268.1H60v-3.4c0-0.8,0.5-1.7,1.5-1.7c1,0,1.2,0.9,1.2,1.7v3.5h1.6v-3.9c0-1.3-0.7-2.5-2.3-2.5
		c-0.9,0-1.7,0.6-1.9,1.2h0v-1h-1.5L58.4,268.1L58.4,268.1z"/>
	<path d="M70.4,262.7c-0.5-0.6-1.4-0.9-2.3-0.9c-1.2,0-2.5,0.6-2.5,2c0,1.2,0.9,1.5,1.8,1.8c0.9,0.2,1.4,0.4,1.4,0.9
		c0,0.6-0.5,0.7-1,0.7c-0.7,0-1.3-0.3-1.6-0.8l-1,1c0.6,0.7,1.6,1,2.6,1c1.4,0,2.6-0.6,2.6-2.1c0-1.2-1.1-1.6-2-1.9
		c-0.9-0.2-1.4-0.3-1.4-0.8c0-0.5,0.5-0.7,1-0.7c0.6,0,1.1,0.3,1.4,0.7L70.4,262.7L70.4,262.7z"/>
	<path d="M77.4,261.9h-1.6v3.4c0,0.8-0.5,1.7-1.5,1.7c-1,0-1.2-0.9-1.2-1.7v-3.5h-1.6v3.9c0,1.3,0.7,2.5,2.3,2.5
		c0.9,0,1.7-0.6,1.9-1.2h0v1h1.5L77.4,261.9L77.4,261.9z"/>
	<rect x="79.3" y="258.3" width="1.6" height="9.8"/>
	<path d="M82.9,263.2v2.9c0,1.2,0.4,2.2,2,2.2c0.4,0,0.8-0.1,1-0.2l-0.1-1.2c-0.2,0.1-0.5,0.1-0.7,0.1c-0.7,0-0.8-0.4-0.8-1v-2.9H86
		v-1.2h-1.6v-1.8h-1.5v1.8h-1.1v1.2H82.9z"/>
	<path d="M91,268.1h1.5v-3.8c0-1.2-0.5-2.6-2.8-2.6c-0.9,0-1.9,0.3-2.6,1l0.8,0.9c0.4-0.4,1-0.7,1.7-0.7c0.8,0,1.4,0.4,1.4,1.1v0.2
		c-1.9,0-4.3,0.3-4.3,2.1c0,1.5,1.3,1.9,2.3,1.9c0.9,0,1.6-0.4,1.9-0.9h0V268.1z M91,265.5c0,1-0.6,1.6-1.6,1.6
		c-0.5,0-1.1-0.2-1.1-0.8c0-0.9,1.4-1,2.4-1H91V265.5L91,265.5z"/>
	<path d="M94.3,268.1h1.6v-3.4c0-0.8,0.5-1.7,1.5-1.7c1,0,1.2,0.9,1.2,1.7v3.5h1.6v-3.9c0-1.3-0.7-2.5-2.3-2.5
		c-0.9,0-1.7,0.6-1.9,1.2h0v-1h-1.5V268.1L94.3,268.1z"/>
	<path d="M102,263.2v2.9c0,1.2,0.4,2.2,2,2.2c0.4,0,0.8-0.1,1-0.2l-0.1-1.2c-0.2,0.1-0.5,0.1-0.7,0.1c-0.7,0-0.8-0.4-0.8-1v-2.9h1.6
		v-1.2h-1.6v-1.8H102v1.8H101v1.2H102z"/>
	<path d="M110.7,262.7c-0.5-0.6-1.4-0.9-2.3-0.9c-1.2,0-2.5,0.6-2.5,2c0,1.2,0.9,1.5,1.8,1.8c0.9,0.2,1.4,0.4,1.4,0.9
		c0,0.6-0.5,0.7-1,0.7c-0.7,0-1.3-0.3-1.6-0.8l-1,1c0.6,0.7,1.6,1,2.6,1c1.4,0,2.6-0.6,2.6-2.1c0-1.2-1.1-1.6-2-1.9
		c-0.9-0.2-1.4-0.3-1.4-0.8c0-0.5,0.5-0.7,1-0.7c0.6,0,1.1,0.3,1.4,0.7L110.7,262.7L110.7,262.7z"/>
</g>
<g>
	<rect x="147.2" y="247.8" class="st1" width="119.3" height="30.1"/>
	<path d="M157.3,268.1h1.6v-3.8h1.3c1.9,0,3.6-0.7,3.6-2.7c0-1.9-1.4-2.7-3.5-2.7h-3V268.1L157.3,268.1z M158.9,263v-2.6h1.2
		c1,0,2,0.2,2,1.3c0,1.1-1,1.4-2,1.4H158.9L158.9,263z"/>
	<path d="M164.5,268.1h1.6v-3.3c0-0.5,0.3-1.7,1.7-1.7c0.1,0,0.3,0,0.5,0.1v-1.4c-0.1,0-0.3,0-0.4,0c-0.8,0-1.5,0.5-1.8,1.2h0v-1
		h-1.5L164.5,268.1L164.5,268.1z"/>
	<path d="M168.6,265c0,2,1.5,3.3,3.4,3.3s3.4-1.4,3.4-3.3c0-2-1.5-3.3-3.4-3.3S168.6,263,168.6,265z M170.2,265c0-1,0.6-2,1.8-2
		s1.8,1,1.8,2c0,1-0.6,2-1.8,2S170.2,266,170.2,265z"/>
	<path d="M176.9,261.9v6.7c0,0.7-0.1,1.3-0.8,1.3c-0.1,0-0.3,0-0.4-0.1l-0.1,1.3c0.2,0,0.4,0.1,0.7,0.1c1.9,0,2.3-1.2,2.3-2.7v-6.6
		L176.9,261.9L176.9,261.9z M176.7,259.8c0,0.5,0.4,0.9,1,0.9c0.6,0,1-0.4,1-0.9c0-0.5-0.4-0.9-1-0.9
		C177.1,258.9,176.7,259.3,176.7,259.8z"/>
	<path d="M181.6,264.4c0.1-0.9,0.8-1.5,1.7-1.5c1,0,1.5,0.7,1.5,1.5H181.6z M186.3,265.1c0-2.2-1.3-3.4-3-3.4
		c-1.9,0-3.3,1.3-3.3,3.3c0,2,1.4,3.3,3.3,3.3c1.2,0,2.1-0.4,2.7-1.2l-1-0.8c-0.4,0.5-0.9,0.8-1.6,0.8c-0.9,0-1.7-0.6-1.8-1.5h4.7
		C186.3,265.4,186.3,265.3,186.3,265.1L186.3,265.1z"/>
	<path d="M193.2,262.7c-0.5-0.6-1.4-1-2.3-1c-1.8,0-3.3,1.3-3.3,3.3c0,2.1,1.5,3.3,3.4,3.3c0.9,0,1.8-0.3,2.3-0.9l-1-1
		c-0.3,0.4-0.8,0.6-1.3,0.6c-1.2,0-1.8-1-1.8-2c0-1,0.6-2,1.7-2c0.5,0,1,0.3,1.3,0.6L193.2,262.7L193.2,262.7z"/>
	<path d="M194.4,263.2v2.9c0,1.2,0.4,2.2,2,2.2c0.4,0,0.8-0.1,1-0.2l-0.1-1.2c-0.2,0.1-0.5,0.1-0.7,0.1c-0.7,0-0.8-0.4-0.8-1v-2.9
		h1.6v-1.2h-1.6v-1.8h-1.5v1.8h-1.1v1.2H194.4z"/>
	<path d="M201.9,268.1h1.6v-7.4h0l2.8,7.4h1.1l2.8-7.4h0v7.4h1.6V259h-2.6l-2.4,6.5h0l-2.4-6.5h-2.6V268.1z"/>
	<path d="M217.6,268.1h1.5v-3.8c0-1.2-0.5-2.6-2.8-2.6c-0.9,0-1.9,0.3-2.6,1l0.8,0.9c0.4-0.4,1-0.7,1.7-0.7c0.8,0,1.4,0.4,1.4,1.1
		v0.2c-1.9,0-4.3,0.3-4.3,2.1c0,1.5,1.3,1.9,2.3,1.9c0.9,0,1.6-0.4,1.9-0.9h0L217.6,268.1L217.6,268.1z M217.6,265.5
		c0,1-0.6,1.6-1.6,1.6c-0.5,0-1.1-0.2-1.1-0.8c0-0.9,1.4-1,2.4-1h0.4L217.6,265.5L217.6,265.5z"/>
	<path d="M220.9,268.1h1.6v-3.4c0-0.8,0.5-1.7,1.5-1.7c1,0,1.2,0.9,1.2,1.7v3.5h1.6v-3.9c0-1.3-0.7-2.5-2.3-2.5
		c-0.9,0-1.7,0.6-1.9,1.2h0v-1h-1.5V268.1L220.9,268.1z"/>
	<path d="M232.3,268.1h1.5v-3.8c0-1.2-0.5-2.6-2.8-2.6c-0.9,0-1.9,0.3-2.6,1l0.8,0.9c0.4-0.4,1-0.7,1.7-0.7c0.8,0,1.4,0.4,1.4,1.1
		v0.2c-1.9,0-4.3,0.3-4.3,2.1c0,1.5,1.3,1.9,2.3,1.9c0.9,0,1.6-0.4,1.9-0.9h0L232.3,268.1L232.3,268.1z M232.3,265.5
		c0,1-0.6,1.6-1.6,1.6c-0.5,0-1.1-0.2-1.1-0.8c0-0.9,1.4-1,2.4-1h0.4L232.3,265.5L232.3,265.5z"/>
	<path d="M240.4,261.9v0.9h0c-0.5-0.8-1.3-1.1-2.1-1.1c-1.9,0-3,1.5-3,3.3c0,1.8,1.2,3.2,3.1,3.2c0.9,0,1.6-0.3,2-0.9h0v0.5
		c0,1.2-0.5,2.1-2,2.1c-0.8,0-1.6-0.3-2.2-0.9l-0.9,1.2c0.8,0.7,2.1,1,3.1,1c2.4,0,3.5-1.4,3.5-3.7v-5.7L240.4,261.9L240.4,261.9z
		 M238.6,263c1.1,0,1.8,0.9,1.8,2c0,1-0.7,2-1.9,2c-1.1,0-1.8-1-1.8-2C236.8,263.9,237.5,263,238.6,263L238.6,263z"/>
	<path d="M245,264.4c0.1-0.9,0.8-1.5,1.7-1.5c1,0,1.5,0.7,1.5,1.5H245z M249.7,265.1c0-2.2-1.3-3.4-3-3.4c-1.9,0-3.3,1.3-3.3,3.3
		c0,2,1.4,3.3,3.3,3.3c1.2,0,2.1-0.4,2.7-1.2l-1-0.8c-0.4,0.5-0.9,0.8-1.6,0.8c-0.9,0-1.7-0.6-1.8-1.5h4.7
		C249.7,265.4,249.7,265.3,249.7,265.1L249.7,265.1z"/>
	<path d="M251.2,268.1h1.6v-3.3c0-0.5,0.3-1.7,1.7-1.7c0.1,0,0.3,0,0.5,0.1v-1.4c-0.1,0-0.3,0-0.4,0c-0.8,0-1.5,0.5-1.8,1.2h0v-1
		h-1.5L251.2,268.1L251.2,268.1z"/>
</g>
<g>
	<rect x="307.3" y="247.8" class="st1" width="130.8" height="30.1"/>
	<path d="M314.6,268.1h1.8l0.8-2.1h4l0.9,2.1h1.9l-4-9.2h-1.4L314.6,268.1L314.6,268.1z M317.9,264.6l1.4-3.7l1.4,3.7H317.9z"/>
	<path d="M330.2,262.7c-0.5-0.6-1.4-1-2.3-1c-1.8,0-3.3,1.3-3.3,3.3c0,2.1,1.5,3.3,3.4,3.3c0.9,0,1.8-0.3,2.3-0.9l-1-1
		c-0.3,0.4-0.8,0.6-1.3,0.6c-1.2,0-1.8-1-1.8-2c0-1,0.6-2,1.7-2c0.5,0,1,0.3,1.3,0.6L330.2,262.7L330.2,262.7z"/>
	<path d="M336.5,262.7c-0.5-0.6-1.4-1-2.3-1c-1.8,0-3.3,1.3-3.3,3.3c0,2.1,1.5,3.3,3.4,3.3c0.9,0,1.8-0.3,2.3-0.9l-1-1
		c-0.3,0.4-0.8,0.6-1.3,0.6c-1.2,0-1.8-1-1.8-2c0-1,0.6-2,1.7-2c0.5,0,1,0.3,1.3,0.6L336.5,262.7L336.5,262.7z"/>
	<path d="M337.1,265c0,2,1.5,3.3,3.4,3.3c1.9,0,3.4-1.4,3.4-3.3c0-2-1.5-3.3-3.4-3.3C338.6,261.7,337.1,263,337.1,265z M338.7,265
		c0-1,0.6-2,1.8-2s1.8,1,1.8,2c0,1-0.6,2-1.8,2S338.7,266,338.7,265z"/>
	<path d="M351.1,261.9h-1.6v3.4c0,0.8-0.5,1.7-1.5,1.7c-1,0-1.2-0.9-1.2-1.7v-3.5h-1.6v3.9c0,1.3,0.7,2.5,2.3,2.5
		c0.9,0,1.7-0.6,1.9-1.2h0v1h1.5V261.9L351.1,261.9z"/>
	<path d="M353,268.1h1.6v-3.4c0-0.8,0.5-1.7,1.5-1.7c1,0,1.2,0.9,1.2,1.7v3.5h1.6v-3.9c0-1.3-0.7-2.5-2.3-2.5
		c-0.9,0-1.7,0.6-1.9,1.2h0v-1H353V268.1L353,268.1z"/>
	<path d="M360.7,263.2v2.9c0,1.2,0.4,2.2,2,2.2c0.4,0,0.8-0.1,1-0.2l-0.1-1.2c-0.2,0.1-0.5,0.1-0.7,0.1c-0.7,0-0.8-0.4-0.8-1v-2.9
		h1.6v-1.2h-1.6v-1.8h-1.5v1.8h-1.1v1.2H360.7z"/>
	<path d="M368.8,268.1h1.5v-3.8c0-1.2-0.5-2.6-2.8-2.6c-0.9,0-1.9,0.3-2.6,1l0.8,0.9c0.4-0.4,1-0.7,1.7-0.7c0.8,0,1.4,0.4,1.4,1.1
		v0.2c-1.9,0-4.3,0.3-4.3,2.1c0,1.5,1.3,1.9,2.3,1.9c0.9,0,1.6-0.4,1.9-0.9h0L368.8,268.1L368.8,268.1z M368.8,265.5
		c0,1-0.6,1.6-1.6,1.6c-0.5,0-1.1-0.2-1.1-0.8c0-0.9,1.4-1,2.4-1h0.4V265.5L368.8,265.5z"/>
	<path d="M372.1,268.1h1.6v-3.4c0-0.8,0.5-1.7,1.5-1.7c1,0,1.2,0.9,1.2,1.7v3.5h1.6v-3.9c0-1.3-0.7-2.5-2.3-2.5
		c-0.9,0-1.7,0.6-1.9,1.2h0v-1h-1.5V268.1L372.1,268.1z"/>
	<path d="M379.8,263.2v2.9c0,1.2,0.4,2.2,2,2.2c0.4,0,0.8-0.1,1-0.2l-0.1-1.2c-0.2,0.1-0.5,0.1-0.7,0.1c-0.7,0-0.8-0.4-0.8-1v-2.9
		h1.6v-1.2h-1.6v-1.8h-1.5v1.8h-1.1v1.2H379.8z"/>
	<path d="M388.1,258.7l-1.1-0.4l-4,10.1l1.1,0.4L388.1,258.7z"/>
	<path d="M388,268.1h1.8l0.8-2.1h4l0.9,2.1h1.9l-4-9.2H392L388,268.1z M391.3,264.6l1.4-3.7l1.4,3.7H391.3z"/>
	<path d="M404.6,258.3H403v4.4h0c-0.3-0.4-0.9-1-2.1-1c-1.8,0-3,1.4-3,3.3c0,1.8,1.2,3.3,3.1,3.3c0.9,0,1.7-0.4,2.1-1.1h0v0.9h1.5
		V258.3z M399.5,265c0-1,0.6-2,1.8-2c1.1,0,1.8,1.1,1.8,2c0,1-0.7,2-1.8,2C400,267,399.5,266,399.5,265L399.5,265z"/>
	<path d="M413.9,261.7c-0.9,0-1.6,0.4-2.1,1.2c-0.3-0.7-1-1.2-1.9-1.2c-1,0-1.7,0.6-1.9,1.2h0v-1h-1.5v6.2h1.6v-3.4
		c0-0.8,0.4-1.7,1.4-1.7c0.8,0,1.2,0.6,1.2,1.3v3.8h1.6v-3.4c0-0.8,0.4-1.7,1.4-1.7c1,0,1.2,0.9,1.2,1.7v3.5h1.6v-3.9
		C416.2,263,415.5,261.7,413.9,261.7L413.9,261.7z"/>
	<path d="M418,268.1h1.6v-6.2H418V268.1z M417.8,259.8c0,0.5,0.4,0.9,1,0.9c0.6,0,1-0.4,1-0.9c0-0.5-0.4-0.9-1-0.9
		C418.2,258.9,417.8,259.3,417.8,259.8z"/>
	<path d="M421.5,268.1h1.6v-3.4c0-0.8,0.5-1.7,1.5-1.7c1,0,1.2,0.9,1.2,1.7v3.5h1.6v-3.9c0-1.3-0.7-2.5-2.3-2.5
		c-0.9,0-1.7,0.6-1.9,1.2h0v-1h-1.5V268.1L421.5,268.1z"/>
</g>
<g>
	<rect x="451.4" y="247.8" class="st1" width="130.8" height="30.1"/>
	<path d="M466.3,268.1h5.5v-1.5H468V259h-1.6V268.1z"/>
	<path d="M473.9,264.4c0.1-0.9,0.8-1.5,1.7-1.5c1,0,1.5,0.7,1.5,1.5H473.9z M478.6,265.1c0-2.2-1.3-3.4-3-3.4
		c-1.9,0-3.3,1.3-3.3,3.3c0,2,1.4,3.3,3.3,3.3c1.2,0,2.1-0.4,2.7-1.2l-1-0.8c-0.4,0.5-0.9,0.8-1.6,0.8c-0.9,0-1.7-0.6-1.8-1.5h4.7
		C478.6,265.4,478.6,265.3,478.6,265.1L478.6,265.1z"/>
	<path d="M485,261.9v0.9h0c-0.5-0.8-1.3-1.1-2.1-1.1c-1.9,0-3,1.5-3,3.3c0,1.8,1.2,3.2,3.1,3.2c0.9,0,1.6-0.3,2-0.9h0v0.5
		c0,1.2-0.5,2.1-2,2.1c-0.8,0-1.6-0.3-2.2-0.9l-0.9,1.2c0.8,0.7,2.1,1,3.1,1c2.4,0,3.5-1.4,3.5-3.7v-5.7L485,261.9L485,261.9z
		 M483.1,263c1.1,0,1.8,0.9,1.8,2c0,1-0.7,2-1.9,2c-1.1,0-1.8-1-1.8-2C481.3,263.9,482,263,483.1,263z"/>
	<path d="M492.2,268.1h1.5v-3.8c0-1.2-0.5-2.6-2.8-2.6c-0.9,0-1.9,0.3-2.6,1l0.8,0.9c0.4-0.4,1-0.7,1.7-0.7c0.8,0,1.4,0.4,1.4,1.1
		v0.2c-1.9,0-4.3,0.3-4.3,2.1c0,1.5,1.3,1.9,2.3,1.9c0.9,0,1.6-0.4,1.9-0.9h0L492.2,268.1L492.2,268.1z M492.1,265.5
		c0,1-0.6,1.6-1.6,1.6c-0.5,0-1.1-0.2-1.1-0.8c0-0.9,1.4-1,2.4-1h0.4L492.1,265.5L492.1,265.5z"/>
	<rect x="495.5" y="258.3" width="1.6" height="9.8"/>
	<path d="M510.1,260.1c-0.7-1-2.1-1.4-3.3-1.4c-2.8,0-5,1.9-5,4.8c0,2.9,2,4.9,4.9,4.9c1.6,0,2.8-0.6,3.6-1.6l-1.3-0.9
		c-0.5,0.6-1.2,1.1-2.2,1.1c-1.9,0-3.1-1.4-3.1-3.4c0-1.9,1.3-3.4,3.2-3.4c0.7,0,1.6,0.3,2.1,0.9L510.1,260.1L510.1,260.1z"/>
	<path d="M510.7,265c0,2,1.5,3.3,3.4,3.3s3.4-1.4,3.4-3.3c0-2-1.5-3.3-3.4-3.3S510.7,263,510.7,265z M512.3,265c0-1,0.6-2,1.8-2
		c1.2,0,1.8,1,1.8,2c0,1-0.6,2-1.8,2C512.8,267,512.3,266,512.3,265z"/>
	<path d="M519,268.1h1.6v-3.4c0-0.8,0.5-1.7,1.5-1.7c1,0,1.2,0.9,1.2,1.7v3.5h1.6v-3.9c0-1.3-0.7-2.5-2.3-2.5
		c-0.9,0-1.7,0.6-1.9,1.2h0v-1H519V268.1L519,268.1z"/>
	<path d="M530.9,262.7c-0.5-0.6-1.4-0.9-2.3-0.9c-1.2,0-2.5,0.6-2.5,2c0,1.2,0.9,1.5,1.8,1.8c0.9,0.2,1.4,0.4,1.4,0.9
		c0,0.6-0.5,0.7-1,0.7c-0.7,0-1.3-0.3-1.6-0.8l-1,1c0.6,0.7,1.6,1,2.6,1c1.4,0,2.6-0.6,2.6-2.1c0-1.2-1.1-1.6-2-1.9
		c-0.9-0.2-1.4-0.3-1.4-0.8c0-0.5,0.5-0.7,1-0.7c0.6,0,1.1,0.3,1.4,0.7L530.9,262.7L530.9,262.7z"/>
	<path d="M538,261.9h-1.6v3.4c0,0.8-0.5,1.7-1.5,1.7c-1,0-1.2-0.9-1.2-1.7v-3.5h-1.6v3.9c0,1.3,0.7,2.5,2.3,2.5
		c0.9,0,1.7-0.6,1.9-1.2h0v1h1.5L538,261.9L538,261.9z"/>
	<rect x="539.8" y="258.3" width="1.6" height="9.8"/>
	<path d="M543.5,263.2v2.9c0,1.2,0.4,2.2,2,2.2c0.4,0,0.8-0.1,1-0.2l-0.1-1.2c-0.2,0.1-0.5,0.1-0.7,0.1c-0.7,0-0.8-0.4-0.8-1v-2.9
		h1.6v-1.2H545v-1.8h-1.5v1.8h-1.1v1.2H543.5z"/>
	<path d="M551.6,268.1h1.5v-3.8c0-1.2-0.5-2.6-2.8-2.6c-0.9,0-1.9,0.3-2.6,1l0.8,0.9c0.4-0.4,1-0.7,1.7-0.7c0.8,0,1.4,0.4,1.4,1.1
		v0.2c-1.9,0-4.3,0.3-4.3,2.1c0,1.5,1.3,1.9,2.3,1.9c0.9,0,1.6-0.4,1.9-0.9h0V268.1L551.6,268.1z M551.5,265.5c0,1-0.6,1.6-1.6,1.6
		c-0.5,0-1.1-0.2-1.1-0.8c0-0.9,1.4-1,2.4-1h0.4L551.5,265.5L551.5,265.5z"/>
	<path d="M554.8,268.1h1.6v-3.4c0-0.8,0.5-1.7,1.5-1.7c1,0,1.2,0.9,1.2,1.7v3.5h1.6v-3.9c0-1.3-0.7-2.5-2.3-2.5
		c-0.9,0-1.7,0.6-1.9,1.2h0v-1h-1.5V268.1L554.8,268.1z"/>
	<path d="M562.6,263.2v2.9c0,1.2,0.4,2.2,2,2.2c0.4,0,0.8-0.1,1-0.2l-0.1-1.2c-0.2,0.1-0.5,0.1-0.7,0.1c-0.7,0-0.8-0.4-0.8-1v-2.9
		h1.6v-1.2h-1.6v-1.8h-1.5v1.8h-1.1v1.2H562.6z"/>
</g>
<g>
	<rect x="149.8" y="332.2" class="st1" width="115.7" height="30.1"/>
	<path d="M164.6,344.1c-0.7-0.7-1.8-1-2.7-1c-1.7,0-3.4,0.8-3.4,2.7c0,1.7,1.2,2.3,2.3,2.6c1.2,0.4,2.1,0.6,2.1,1.6
		c0,1-0.9,1.4-1.7,1.4c-0.7,0-1.6-0.4-2-1l-1.2,1.1c0.7,0.9,2,1.3,3.2,1.3c1.8,0,3.3-1,3.3-2.9c0-1.8-1.5-2.3-2.7-2.7
		c-1-0.3-1.8-0.6-1.8-1.4c0-0.9,0.9-1.3,1.6-1.3c0.6,0,1.3,0.3,1.7,0.8L164.6,344.1L164.6,344.1z"/>
	<path d="M171.9,346.3h-1.6v3.4c0,0.8-0.5,1.7-1.5,1.7c-1,0-1.2-0.9-1.2-1.7v-3.5h-1.6v3.9c0,1.3,0.7,2.5,2.3,2.5
		c0.9,0,1.7-0.6,1.9-1.2h0v1h1.5V346.3L171.9,346.3z"/>
	<path d="M173.8,342.8v9.8h1.5v-0.9h0c0.4,0.7,1.3,1.1,2.1,1.1c1.9,0,3.1-1.5,3.1-3.3c0-1.8-1.2-3.3-3-3.3c-1.1,0-1.8,0.6-2.1,1h0
		v-4.4L173.8,342.8L173.8,342.8z M179,349.4c0,1-0.6,2-1.8,2c-1.1,0-1.8-1-1.8-2c0-1,0.7-2,1.8-2C178.4,347.4,179,348.5,179,349.4z"
		/>
	<rect x="181.6" y="348.7" width="3.1" height="1.3"/>
	<path d="M194.1,344.5c-0.7-1-2.1-1.4-3.3-1.4c-2.8,0-5,1.9-5,4.8c0,2.9,2,4.9,4.9,4.9c1.6,0,2.8-0.6,3.6-1.6l-1.3-0.9
		c-0.5,0.6-1.2,1.1-2.2,1.1c-1.9,0-3.1-1.4-3.1-3.4c0-1.9,1.3-3.4,3.2-3.4c0.7,0,1.6,0.3,2.1,0.9L194.1,344.5L194.1,344.5z"/>
	<path d="M194.7,349.4c0,2,1.5,3.3,3.4,3.3c1.9,0,3.4-1.4,3.4-3.3c0-2-1.5-3.3-3.4-3.3C196.2,346.2,194.7,347.5,194.7,349.4z
		 M196.3,349.4c0-1,0.6-2,1.8-2c1.2,0,1.8,1,1.8,2c0,1-0.6,2-1.8,2C196.9,351.5,196.3,350.4,196.3,349.4z"/>
	<path d="M203,352.6h1.6v-3.4c0-0.8,0.5-1.7,1.5-1.7c1,0,1.2,0.9,1.2,1.7v3.5h1.6v-3.9c0-1.3-0.7-2.5-2.3-2.5
		c-0.9,0-1.7,0.6-1.9,1.2h0v-1H203V352.6z"/>
	<path d="M210.7,347.6v2.9c0,1.2,0.4,2.2,2,2.2c0.4,0,0.8-0.1,1-0.2l-0.1-1.2c-0.2,0.1-0.5,0.1-0.7,0.1c-0.7,0-0.8-0.4-0.8-1v-2.9
		h1.6v-1.2h-1.6v-1.8h-1.5v1.8h-1.1v1.2H210.7z"/>
	<path d="M214.9,352.6h1.6v-3.3c0-0.5,0.3-1.7,1.7-1.7c0.1,0,0.3,0,0.5,0.1v-1.4c-0.1,0-0.3,0-0.4,0c-0.8,0-1.5,0.5-1.8,1.2h0v-1
		h-1.5L214.9,352.6L214.9,352.6z"/>
	<path d="M223.4,352.6h1.5v-3.8c0-1.2-0.5-2.6-2.8-2.6c-0.9,0-1.9,0.3-2.6,1l0.8,0.9c0.4-0.4,1-0.7,1.7-0.7c0.8,0,1.4,0.4,1.4,1.1
		v0.2c-1.9,0-4.3,0.3-4.3,2.1c0,1.5,1.3,1.9,2.3,1.9c0.9,0,1.6-0.4,1.9-0.9h0L223.4,352.6L223.4,352.6z M223.3,349.9
		c0,1-0.6,1.6-1.6,1.6c-0.5,0-1.1-0.2-1.1-0.8c0-0.9,1.4-1,2.4-1h0.4L223.3,349.9L223.3,349.9z"/>
	<path d="M232,347.1c-0.5-0.6-1.4-1-2.3-1c-1.8,0-3.3,1.3-3.3,3.3c0,2.1,1.5,3.3,3.4,3.3c0.9,0,1.8-0.3,2.3-0.9l-1-1
		c-0.3,0.4-0.8,0.6-1.3,0.6c-1.2,0-1.8-1-1.8-2c0-1,0.6-2,1.7-2c0.5,0,1,0.3,1.3,0.6L232,347.1L232,347.1z"/>
	<path d="M233.2,347.6v2.9c0,1.2,0.4,2.2,2,2.2c0.4,0,0.8-0.1,1-0.2l-0.1-1.2c-0.2,0.1-0.5,0.1-0.7,0.1c-0.7,0-0.8-0.4-0.8-1v-2.9
		h1.6v-1.2h-1.6v-1.8h-1.5v1.8h-1.1v1.2H233.2z"/>
	<path d="M237,349.4c0,2,1.5,3.3,3.4,3.3s3.4-1.4,3.4-3.3c0-2-1.5-3.3-3.4-3.3S237,347.5,237,349.4z M238.6,349.4c0-1,0.6-2,1.8-2
		s1.8,1,1.8,2c0,1-0.6,2-1.8,2S238.6,350.4,238.6,349.4z"/>
	<path d="M245.3,352.6h1.6v-3.3c0-0.5,0.3-1.7,1.7-1.7c0.1,0,0.3,0,0.5,0.1v-1.4c-0.1,0-0.3,0-0.4,0c-0.8,0-1.5,0.5-1.8,1.2h0v-1
		h-1.5L245.3,352.6L245.3,352.6z"/>
	<path d="M254.4,347.1c-0.5-0.6-1.4-0.9-2.3-0.9c-1.2,0-2.5,0.6-2.5,2c0,1.2,0.9,1.5,1.8,1.8c0.9,0.2,1.4,0.4,1.4,0.9
		c0,0.6-0.5,0.7-1,0.7c-0.7,0-1.3-0.3-1.6-0.8l-1,1c0.6,0.7,1.6,1,2.6,1c1.4,0,2.6-0.6,2.6-2.1c0-1.2-1.1-1.6-2-1.9
		c-0.9-0.2-1.4-0.3-1.4-0.8c0-0.5,0.5-0.7,1-0.7c0.6,0,1.1,0.3,1.4,0.7L254.4,347.1L254.4,347.1z"/>
</g>
<g>
	<rect x="330.7" y="332.2" class="st1" width="84" height="30.1"/>
	<path d="M350,344.1c-0.7-0.7-1.8-1-2.7-1c-1.7,0-3.4,0.8-3.4,2.7c0,1.7,1.2,2.3,2.3,2.6c1.2,0.4,2.1,0.6,2.1,1.6
		c0,1-0.9,1.4-1.7,1.4c-0.7,0-1.6-0.4-2-1l-1.2,1.1c0.7,0.9,2,1.3,3.2,1.3c1.8,0,3.3-1,3.3-2.9c0-1.8-1.5-2.3-2.7-2.7
		c-1-0.3-1.8-0.6-1.8-1.4c0-0.9,0.9-1.3,1.6-1.3c0.6,0,1.3,0.3,1.7,0.8L350,344.1L350,344.1z"/>
	<path d="M357.3,346.3h-1.6v3.4c0,0.8-0.5,1.7-1.5,1.7c-1,0-1.2-0.9-1.2-1.7v-3.5h-1.6v3.9c0,1.3,0.7,2.5,2.3,2.5
		c0.9,0,1.7-0.6,1.9-1.2h0v1h1.5L357.3,346.3L357.3,346.3z"/>
	<path d="M359.2,346.3v9.3h1.6v-3.9h0c0.4,0.6,1.2,1,2.1,1c1.9,0,3.1-1.5,3.1-3.3c0-1.8-1.2-3.3-3-3.3c-1.1,0-1.8,0.6-2.2,1h0v-0.9
		L359.2,346.3L359.2,346.3z M364.3,349.4c0,1-0.6,2-1.8,2c-1.1,0-1.8-1-1.8-2c0-1,0.7-2,1.8-2C363.8,347.4,364.3,348.5,364.3,349.4z
		"/>
	<path d="M367.4,346.3v9.3h1.6v-3.9h0c0.4,0.6,1.2,1,2.1,1c1.9,0,3.1-1.5,3.1-3.3c0-1.8-1.2-3.3-3-3.3c-1.1,0-1.8,0.6-2.2,1h0v-0.9
		L367.4,346.3L367.4,346.3z M372.5,349.4c0,1-0.6,2-1.8,2c-1.1,0-1.8-1-1.8-2c0-1,0.7-2,1.8-2C372,347.4,372.5,348.5,372.5,349.4z"
		/>
	<rect x="375.7" y="342.8" width="1.6" height="9.8"/>
	<path d="M379.1,352.6h1.6v-6.2h-1.6V352.6z M378.9,344.2c0,0.5,0.4,0.9,1,0.9c0.6,0,1-0.4,1-0.9c0-0.5-0.4-0.9-1-0.9
		C379.3,343.3,378.9,343.7,378.9,344.2z"/>
	<path d="M383.8,348.8c0.1-0.9,0.8-1.5,1.7-1.5c1,0,1.5,0.7,1.5,1.5H383.8z M388.5,349.5c0-2.2-1.3-3.4-3-3.4
		c-1.9,0-3.3,1.3-3.3,3.3c0,2,1.4,3.3,3.3,3.3c1.2,0,2.1-0.4,2.7-1.2l-1-0.8c-0.4,0.5-0.9,0.8-1.6,0.8c-0.9,0-1.7-0.6-1.8-1.5h4.7
		C388.5,349.8,388.5,349.7,388.5,349.5L388.5,349.5z"/>
	<path d="M390,352.6h1.6v-3.3c0-0.5,0.3-1.7,1.7-1.7c0.1,0,0.3,0,0.5,0.1v-1.4c-0.1,0-0.3,0-0.4,0c-0.8,0-1.5,0.5-1.8,1.2h0v-1H390
		L390,352.6L390,352.6z"/>
	<path d="M399.2,347.1c-0.5-0.6-1.4-0.9-2.3-0.9c-1.2,0-2.5,0.6-2.5,2c0,1.2,0.9,1.5,1.8,1.8c0.9,0.2,1.4,0.4,1.4,0.9
		c0,0.6-0.5,0.7-1,0.7c-0.7,0-1.3-0.3-1.6-0.8l-1,1c0.6,0.7,1.6,1,2.6,1c1.4,0,2.6-0.6,2.6-2.1c0-1.2-1.1-1.6-2-1.9
		c-0.9-0.2-1.4-0.3-1.4-0.8c0-0.5,0.5-0.7,1-0.7c0.6,0,1.1,0.3,1.4,0.7L399.2,347.1L399.2,347.1z"/>
</g>
<path class="st1" d="M300.6,101.9v23.3"/>
<path class="st1" d="M160,148.9v-23.8h281.9v23.8"/>
<path class="st1" d="M444.8,179v29.7"/>
<path class="st1" d="M372.7,247.8v-39h147.7v39"/>
<path class="st1" d="M160,179v29.7"/>
<path class="st1" d="M206.9,247.8v-39H77.1v39"/>
<path class="st1" d="M206.9,277.9v54.3"/>
<path class="st1" d="M372.7,277.9v54.3"/>
</svg>
