<svg xmlns="http://www.w3.org/2000/svg" viewBox="0 0 611.6 206.4"><title>bogroup_facility_mgt_logo</title><rect width="611.6" height="206.41" fill="none"/><path d="M228,92.2c0-4.6-3.2-7.4-7.2-8.1h0c3.4-1.2,5.7-3.7,5.7-7.6,0-7.1-6.5-9-11.9-9h-14v35h14C221.3,102.4,228,99.9,228,92.2Zm-9.6-14.7c0,2.5-1.9,3.8-5,3.8h-4.6V74.1H213C216.5,74.1,218.4,75.1,218.4,77.5Zm1.1,13.9c0,3.5-3.3,4.2-6,4.2h-4.7v-8h4.7c3.6,0,6,.9,6,3.8Z"/><rect x="233.2" y="65" width="8.2" height="37.45"/><path d="M262.4,92.5c0,3.1-1.8,5.1-5.1,5.1-1.6,0-3.5-.7-3.5-2.5s4-3.4,7.6-3.4h1Zm-10.8-7a9.9,9.9,0,0,1,6.1-2.5c2.6,0,4.5,1.2,4.5,3.6V87c-7.2,0-15.9,1.2-15.9,8.3s5.1,7.7,9,7.7,5.8-1.2,7-3.2h.1v2.6h7.5V90c0-9-3.1-13-11.4-13a16.3,16.3,0,0,0-11,4.1l4.1,4.4Z"/><path d="M297.6,80.3c-1.9-2-5.6-3.3-9.2-3.3-7.6,0-13.7,5.1-13.7,13.1s6,13.1,13.8,13.1c3.6,0,7.1-1.2,9.1-3.1l-4.5-5.5a5.9,5.9,0,0,1-4.4,1.8c-3.6,0-5.8-2.9-5.8-6.3s2.3-6.3,5.7-6.3a6,6,0,0,1,4.3,1.9l4.7-5.4Z"/><path d="M317.4,88.9l9.5-11.1h-9.8l-7.9,10h-.1V65h-8.2v37.4h8.2V90.6h.1l8.1,11.8h10l-9.9-13.5Z"/><path d="M379.7,84.8c0-11.3-8.1-18.4-19.1-18.4s-19.1,7.1-19.1,18.4,8.1,18.6,19.1,18.6S379.7,95.9,379.7,84.8Zm-9.1,0c0,6.3-4.1,10.9-10,10.9s-10-4.6-10-10.9,4-10.7,10-10.7S370.6,78.6,370.6,84.8Z"/><path d="M401.2,77.3a4.4,4.4,0,0,0-1.7-.2,7.4,7.4,0,0,0-6.7,4.2h-.1V77.8h-7.8v24.6H393V89.8a5.5,5.5,0,0,1,5.8-5.6,7.1,7.1,0,0,1,2,.2l.4-7.1Z"/><path d="M425.3,80.3c-2-2-5.7-3.3-9.2-3.3-7.7,0-13.8,5.1-13.8,13.1s6.1,13.1,13.9,13.1a13.9,13.9,0,0,0,9.1-3.1l-4.5-5.5a5.9,5.9,0,0,1-4.4,1.8c-3.6,0-5.8-2.9-5.8-6.3s2.2-6.3,5.7-6.3a6,6,0,0,1,4.3,1.9l4.7-5.4Z"/><path d="M452.9,102.4V87.2c0-5-2.3-10.1-9-10.1a8.1,8.1,0,0,0-7.1,3.8h-.1V65h-8.1v37.4h8.1V89.1c0-2.9,1.6-5.2,4.4-5.2s3.6,2.4,3.6,5.2v13.3Z"/><path d="M473.6,92.5c0,3.1-1.8,5.1-5.1,5.1-1.6,0-3.5-.7-3.5-2.5s4-3.4,7.6-3.4h1Zm-10.8-7a9.9,9.9,0,0,1,6.1-2.5c2.5,0,4.5,1.2,4.5,3.6V87c-7.2,0-15.9,1.2-15.9,8.3s5.1,7.7,9,7.7,5.7-1.2,7-3.2h.1v2.6h7.5V90c0-9-3.1-13-11.4-13a16.3,16.3,0,0,0-11,4.1l4.1,4.4Z"/><path d="M503.4,77.3a4.2,4.2,0,0,0-1.7-.2,7.6,7.6,0,0,0-6.7,4.2h-.1V77.8h-7.8v24.6h8.1V89.8a5.6,5.6,0,0,1,5.8-5.6,7.5,7.5,0,0,1,2.1.2l.3-7.1Z"/><path d="M532,102.4V65h-8.1V80.4h-.1a10.1,10.1,0,0,0-7.6-3.3c-7.2,0-11.6,6-11.6,12.9s4.3,13.1,11.7,13.1c3.3,0,6.5-1.4,8.1-3.9h.1v3.2Zm-7.8-12.3a6.1,6.1,0,0,1-5.9,6.3c-3.9,0-5.9-3.2-5.9-6.4s2-6.3,5.9-6.3S524.2,86.9,524.2,90.1Z"/><path d="M212.2,125.9v-3.6H200.6v17.5h4.2V133h6.8v-3.5h-6.8v-3.6Z"/><path d="M230.1,139.8l-7.2-17.5h-4.1l-7.4,17.5H216l1.3-3.5h6.8l1.3,3.5Zm-7.2-6.8h-4.4l2.2-6.1,2.2,6.1Z"/><path d="M246.6,137.4l-3-2.8a4.4,4.4,0,0,1-3.7,1.8c-2.9,0-4.9-2.2-4.9-5.4s2.1-5.4,5-5.4a4.2,4.2,0,0,1,3.5,1.6l2.9-2.8c-1.4-1.7-4.1-2.6-6.5-2.6-5.4,0-9.6,3.6-9.6,9.2s4.1,9.3,9.5,9.3A9,9,0,0,0,246.6,137.4Z"/><rect x="248.4" y="122.3" width="4.3" height="17.53"/><path d="M267.3,139.8v-3.7h-6.8V122.3h-4.2v17.5Z"/><rect x="269.3" y="122.3" width="4.3" height="17.53"/><path d="M289.6,125.9v-3.6H275.5v3.6h5v13.9h4.2V125.9Z"/><path d="M306.5,122.3h-4.9l-3.8,6.4-3.7-6.4H289l6.6,10.1v7.4h4.2v-7.4l6.7-10.1Z"/><path d="M333.5,139.8V122.3h-6.1l-3.8,11.2h-.1l-4-11.2h-6.1v17.5h4V127.4h.1l4.4,12.4h3l4.6-12.4h0v12.4Z"/><path d="M353.7,139.8l-7.3-17.5h-4.1l-7.4,17.5h4.7l1.2-3.5h6.8l1.4,3.5Zm-7.2-6.8h-4.4l2.2-6.1Z"/><path d="M371.1,139.8V122.3H367v11.4H367l-7-11.4h-4.8v17.5h4.1V128.3h0l7.1,11.5Z"/><path d="M391.3,139.8,384,122.3h-4.1l-7.3,17.5h4.6l1.3-3.5h6.7l1.4,3.5Zm-7.2-6.8h-4.4l2.2-6.1Z"/><path d="M407.9,138.7v-9.3h-7.2v3.4H404V136a5.3,5.3,0,0,1-2.6.5c-3.5,0-5.4-2.3-5.4-5.5a5.2,5.2,0,0,1,5.2-5.5,4.9,4.9,0,0,1,3.9,1.7l2.7-3.1a10.1,10.1,0,0,0-6.8-2.3c-5.3,0-9.5,3.6-9.5,9.2s4.1,9.2,9.7,9.2a14.4,14.4,0,0,0,6.7-1.5Z"/><path d="M423.6,139.8v-3.6h-8.1v-3.7h7.2v-3.4h-7.2v-3.3h7.7v-3.5H411.4v17.5Z"/><path d="M446.5,139.8V122.3h-6.2l-3.8,11.2h-.1l-4-11.2h-6v17.5h4V127.4h.1l4.4,12.4h3l4.5-12.4h.1v12.4Z"/><path d="M462.3,139.8v-3.6h-8.1v-3.7h7.2v-3.4h-7.2v-3.3h7.7v-3.5H450.1v17.5Z"/><path d="M481.1,139.8V122.3h-4.2v11.4h0l-7.1-11.4h-4.8v17.5h4.1V128.3h.1l7.1,11.5Z"/><path d="M497.1,125.9v-3.6H483v3.6h4.9v13.9h4.3V125.9Z"/><path d="M515.7,139.8v-3.7h-6.8V122.3h-4.2v17.5Z"/><path d="M528.2,125.9v-3.6H514.1v3.6H519v13.9h4.2V125.9Z"/><path d="M546.5,131c0-6.7-5.1-8.7-10-8.7h-6.4v17.5h6.6c4.8,0,9.8-2.7,9.8-8.8Zm-4.4,0c0,3.9-2.8,5.1-5.8,5.1h-2V125.9h2.1C539.3,125.9,542.1,127,542.1,131Z"/><circle cx="88.4" cy="100.2" r="45.4" fill="none" stroke="#000" stroke-linecap="round" stroke-linejoin="round" stroke-width="20.64"/><path d="M96.7,100.2S95,85.4,99,74.5c2.1-5.7,10.2-17.1,23.5-19.7s17.3-4.2,19.6-5.2,9.6-4,19.6-13.4c0,0,.6,9.8-3.1,18.6s-10.5,17.9-16.5,21.7-15.7,4.1-19.6,5.1C116.5,83.3,101.5,85.2,96.7,100.2Z" fill="#ccc" fill-rule="evenodd"/></svg>