<svg xmlns="http://www.w3.org/2000/svg" viewBox="0 0 567 173.4">
    <title>building</title>
    <path d="M277,173.4H567s-43.8-12.8-118.2-31.6l1.2-13.6a35.6,35.6,0,0,0,7.9,0c2.8-12.1,7.4-26.9-11.1-20.5-7.8-2-5.1,3.1-6.9,9.4s1.6,9.3,7.2,10.6l-0.7,13.5q-10.8-2.7-22.4-5.2l1-11.5c9,0.2,15.9-11.5,4.3-21l0.9,1.8a10.2,10.2,0,0,0-12.3,2.3,13.8,13.8,0,0,0-5.9-7.1c-3.1-1.9-5.8,1.7-5.8,1.7-7.1,4.6-7.2-3.1-9.4,2.1-1,7.1.8,14.4,9.2,15l-0.7,13.2q-9.9-1.8-20.3-3.4c1.1-15.4,4.9-61.3,12.7-99.2C350.2,8.3,327.7,0,327.7,0l-5.5,123.3h0s-0.1,22.3-14.9,28.2C289.7,158.4,277,173.4,277,173.4Zm130.8-40.6,1.2-13.6h-0.3l2.2-.3a11.1,11.1,0,0,0,4.2-1.4,7.9,7.9,0,0,0,2.1,3.7,12.9,12.9,0,0,0,5.2,3l-0.6,11.5ZM381.9,52.9l-9-2.8,1.7-12.5,9.4,4.3Zm-2.5,17.7-9.1-2,1.3-10.1,8.8,2.4ZM377,88.7l-9.5-1.7,1.3-10,9.1,2Zm-12.1,17.2,1.1-9.9,9.7,1.3-0.9,10Z" fill="#ccc" />
    <path d="M0,173.4H190.8s25.7-18,66.2-28.1c26.1-6.5,54.2-7.6,57.6-20.3h0l6-123.7L300.3,30.4l-0.7,94.4H281.4c-0.7-14-1.7-57.3-1.7-57.3L249.3,67V40.6s-42-23-86-4.7c0.8,3.9,2,10,3.3,17.4V52.8c25-8.5,53.5-3.9,53.5-3.9s0.2,4.9.2,6.8c-22.1-3.3-50.3,3.7-52.4,4.2l2.4,12.9c25.5-7.8,50-4.8,50-4.8s0.6,6.1,1,8c-21.7-2.8-46.7,3.4-49.6,4.1L174,92.5c1.7-.6,15-4.9,47.7-4.5,0,6.2.4,6.4,0.4,6.4s-35,.8-46.5,7l5.7,31.2C62.8,149.3,0,173.4,0,173.4Zm262.6-65.2,6.8-.2,0.2,7.7-6.8.2Zm-0.3-14h6.8l0.2,7.7h-6.8Zm-0.3-14,6.8-.2,0.2,7.7h-6.8Z" fill="#ccc" />
</svg>
