<?xml version="1.0" encoding="utf-8"?>
<!-- Generator: Adobe Illustrator 19.2.1, SVG Export Plug-In . SVG Version: 6.00 Build 0)  -->
<svg version="1.1" id="Layer_1" xmlns="http://www.w3.org/2000/svg" xmlns:xlink="http://www.w3.org/1999/xlink" x="0px" y="0px"
	 viewBox="0 0 575.2 295.1" style="enable-background:new 0 0 575.2 295.1;" xml:space="preserve">
<style type="text/css">
	.st0{fill:#F7F7F7;}
	.st1{fill:#E0E0E0;}
	.st2{fill:#CFCFCF;}
	.st3{fill:#2B2B2B;}
	.st4{fill:#B0B0B0;}
	.st5{fill:#8F8F8F;}
	.st6{fill:#3D3D3D;}
	.st7{opacity:0.5;}
	.st8{fill:#FFFFFF;}
	.st9{fill:#474747;}
	.st10{fill:#CCCCCC;}
	.st11{fill:#0C6E9C;}
	.st12{fill:#777777;}
	.st13{opacity:0.3;}
	.st14{fill:#6B6B6B;}
	.st15{fill:#BFBFBF;}
	.st16{fill:#8A8D8E;}
	.st17{fill:#FFCDA3;}
	.st18{fill:#155A7A;}
	.st19{fill:#575757;}
	.st20{fill:#404040;}
	.st21{opacity:0.49;fill:#FFFFFF;}
	.st22{fill:#939393;}
	.st23{opacity:0.29;}
</style>
<title>building3</title>
<g>
	<path class="st0" d="M554,90.8c1.1-1.8,0.4-4.1-1.4-5.2c-0.3-0.2-0.7-0.3-1-0.4c1.5-5.1-1.4-10.5-6.5-12.1
		c-2.2-0.7-4.6-0.5-6.8,0.5c2.3-10.5-4.3-20.8-14.8-23.1c-3.8-0.8-7.7-0.5-11.3,0.9c-5.7-7.2-15-10.5-24-8.6
		c-4.9-17.1-22.9-27-40-22.1C431.9,25.4,422,42,425.6,58.6c-8.2-3.6-17.7,0.1-21.4,8.3c-1.5,3.5-1.8,7.4-0.7,11
		c-3.4,0.8-5.5,4.3-4.7,7.7c0.1,0.5,0.3,1.1,0.6,1.6L364,96h211.2L554,90.8z"/>
	<path class="st0" d="M251.5,55.3c0.3-0.4,0.4-0.9,0.4-1.4c0-1.4-1-2.6-2.3-2.9c1.1-4-1.3-8.2-5.3-9.3c-1.6-0.5-3.4-0.3-5,0.3
		c1.7-8.2-3.5-16.2-11.6-17.9c-2.9-0.6-5.9-0.4-8.7,0.7c-4.4-5.6-11.6-8.2-18.6-6.7C196.3,4.9,182.3-2.6,169,1.5
		c-12.3,3.8-19.7,16.3-17.2,28.9c-6.4-2.8-13.8,0.1-16.6,6.4c-1.2,2.7-1.4,5.7-0.6,8.6c-2.6,0.6-4.3,3.2-3.7,5.8
		c0.1,0.5,0.3,0.9,0.5,1.4l-27.5,6.8H268L251.5,55.3z"/>
	<path class="st0" d="M147.6,133c0.3-0.4,0.4-0.9,0.4-1.4c0-1.4-1-2.6-2.3-2.9c1.1-4-1.3-8.2-5.3-9.3c-1.6-0.5-3.4-0.3-5,0.3
		c1.7-8.2-3.5-16.2-11.6-17.9c-2.9-0.6-5.9-0.4-8.7,0.7c-4.4-5.6-11.6-8.2-18.6-6.7c-4.1-13.2-18.1-20.7-31.4-16.6
		C52.8,83,45.4,95.5,47.9,108.1c-6.4-2.8-13.8,0.1-16.6,6.4c-1.2,2.7-1.4,5.7-0.6,8.6c-2.6,0.6-4.3,3.2-3.7,5.8
		c0.1,0.5,0.3,0.9,0.5,1.4L0,137.1h164.1L147.6,133z"/>
	<polygon class="st1" points="567.1,294.3 544.8,294.3 544.8,124.3 567.1,139.6 	"/>
	<polygon class="st2" points="544.8,294.3 508.6,294.4 508.6,133 544.8,124.3 	"/>
	<polygon points="512.1,236.6 515.9,236.3 515.9,222.8 512.1,223.2 	"/>
	<polygon points="535.5,219.7 535.5,205.8 531.5,206.3 531.5,220.1 	"/>
	<polygon points="530.5,147.1 526.6,147.9 526.6,161.6 530.5,160.9 	"/>
	<polygon points="535.5,146 531.5,146.9 531.5,160.7 535.5,159.9 	"/>
	<polygon points="521.7,235.8 525.6,235.5 525.6,221.8 521.7,222.2 	"/>
	<polygon points="515.9,150.2 512.1,151 512.1,164.4 515.9,163.7 	"/>
	<polygon points="525.6,148.1 521.7,148.9 521.7,162.6 525.6,161.8 	"/>
	<polygon points="520.7,193 516.9,193.6 516.9,207.1 520.7,206.7 	"/>
	<polygon points="521.7,178.3 521.7,191.9 525.6,191.3 525.6,177.6 	"/>
	<polygon points="525.6,220.8 525.6,207 521.7,207.5 521.7,221.2 	"/>
	<polygon points="520.7,178.4 516.9,179.1 516.9,192.6 520.7,192 	"/>
	<polygon points="515.9,193.8 512.1,194.3 512.1,207.8 515.9,207.3 	"/>
	<polygon points="526.6,162.7 526.6,176.4 530.5,175.7 530.5,161.9 	"/>
	<polygon points="516.9,164.5 516.9,178.1 520.7,177.4 520.7,163.8 	"/>
	<polygon points="536.5,219.6 540.6,219.1 540.6,205.1 536.5,205.6 	"/>
	<polygon points="515.9,179.2 512.1,179.9 512.1,193.3 515.9,192.7 	"/>
	<polygon points="536.5,189.7 540.6,189.1 540.6,175 536.5,175.7 	"/>
	<polygon points="531.5,235 535.5,234.6 535.5,220.7 531.5,221.1 	"/>
	<polygon points="531.5,205.3 535.5,204.7 535.5,190.8 531.5,191.4 	"/>
	<polygon points="521.7,163.6 521.7,177.2 525.6,176.6 525.6,162.8 	"/>
	<polygon points="520.7,221.3 520.7,207.7 516.9,208.2 516.9,221.7 	"/>
	<polygon points="536.5,159.7 540.6,158.9 540.6,144.9 536.5,145.8 	"/>
	<polygon points="526.6,191.2 530.5,190.6 530.5,176.7 526.6,177.4 	"/>
	<polygon points="525.6,206 525.6,192.3 521.7,192.9 521.7,206.5 	"/>
	<polygon points="515.9,208.3 512.1,208.8 512.1,222.2 515.9,221.8 	"/>
	<polygon points="530.5,220.2 530.5,206.4 526.6,206.9 526.6,220.6 	"/>
	<polygon points="515.9,164.7 512.1,165.4 512.1,178.9 515.9,178.2 	"/>
	<polygon points="530.5,205.4 530.5,191.6 526.6,192.2 526.6,205.9 	"/>
	<polygon points="520.7,149.2 516.9,150 516.9,163.5 520.7,162.8 	"/>
	<polygon points="526.6,235.4 530.5,235.1 530.5,221.2 526.6,221.7 	"/>
	<polygon points="536.5,204.6 540.6,204.1 540.6,190.1 536.5,190.7 	"/>
	<polygon points="531.5,190.4 535.5,189.8 535.5,175.9 531.5,176.6 	"/>
	<polygon points="516.9,236.2 520.7,235.9 520.7,222.3 516.9,222.7 	"/>
	<polygon points="536.5,234.5 540.6,234.2 540.6,220.2 536.5,220.6 	"/>
	<polygon points="531.5,175.6 535.5,174.9 535.5,160.9 531.5,161.7 	"/>
	<polygon points="536.5,174.7 540.6,174 540.6,160 536.5,160.7 	"/>
	<polygon class="st3" points="554.3,164.3 554.3,178 556.3,179 556.3,165.4 	"/>
	<polygon class="st3" points="553.3,193.6 551.3,192.7 551.3,206.7 553.3,207.5 	"/>
	<polygon class="st3" points="553.3,178.6 551.3,177.7 551.3,191.6 553.3,192.5 	"/>
	<polygon class="st3" points="556.3,150.6 554.3,149.4 554.3,163.2 556.3,164.2 	"/>
	<polygon class="st3" points="553.3,222.4 553.3,208.5 551.3,207.8 551.3,221.8 	"/>
	<polygon class="st3" points="553.3,148.8 551.3,147.6 551.3,161.5 553.3,162.6 	"/>
	<polygon class="st3" points="551.3,236.9 553.3,237.3 553.3,223.4 551.3,222.8 	"/>
	<polygon class="st3" points="550.3,207.4 548.2,206.7 548.2,220.9 550.3,221.5 	"/>
	<polygon class="st3" points="550.3,192.3 548.2,191.4 548.2,205.6 550.3,206.4 	"/>
	<polygon class="st3" points="551.3,162.7 551.3,176.6 553.3,177.5 553.3,163.8 	"/>
	<polygon class="st3" points="548.2,236.1 550.3,236.6 550.3,222.5 548.2,221.9 	"/>
	<polygon class="st3" points="550.3,177.2 548.2,176.2 548.2,190.3 550.3,191.2 	"/>
	<polygon class="st3" points="550.3,162.1 548.2,161 548.2,175 550.3,176.1 	"/>
	<polygon class="st3" points="563,239.6 564.7,240 564.7,226.8 563,226.3 	"/>
	<polygon class="st3" points="563,182.2 564.7,183.1 564.7,170 563,169 	"/>
	<polygon class="st3" points="563,210.9 564.7,211.6 564.7,198.4 563,197.7 	"/>
	<polygon class="st3" points="563,225.3 564.7,225.8 564.7,212.6 563,212 	"/>
	<polygon class="st3" points="563,167.9 564.7,168.9 564.7,155.8 563,154.7 	"/>
	<polygon class="st3" points="560.2,239 562,239.4 562,226 560.2,225.5 	"/>
	<polygon class="st3" points="563,196.6 564.7,197.3 564.7,184.2 563,183.3 	"/>
	<polygon class="st3" points="556.3,223.3 556.3,209.6 554.3,208.9 554.3,222.7 	"/>
	<polygon class="st3" points="559.2,209.6 559.2,196 557.3,195.2 557.3,208.9 	"/>
	<polygon class="st3" points="559.2,152.4 557.3,151.2 557.3,164.8 559.2,165.8 	"/>
	<polygon class="st3" points="554.3,237.6 556.3,238 556.3,224.3 554.3,223.7 	"/>
	<polygon class="st3" points="557.3,238.3 559.2,238.7 559.2,225.2 557.3,224.6 	"/>
	<polygon class="st3" points="559.2,224.1 559.2,210.6 557.3,209.9 557.3,223.6 	"/>
	<polygon class="st3" points="557.3,194.2 559.2,195 559.2,181.5 557.3,180.6 	"/>
	<polygon class="st3" points="557.3,165.9 557.3,179.5 559.2,180.4 559.2,167 	"/>
	<polygon class="st3" points="562,225 562,211.6 560.2,211 560.2,224.4 	"/>
	<polygon class="st3" points="560.2,195.4 562,196.2 562,182.8 560.2,182 	"/>
	<polygon class="st3" points="560.2,209.9 562,210.6 562,197.2 560.2,196.5 	"/>
	<polygon class="st3" points="560.2,180.9 562,181.7 562,168.5 560.2,167.5 	"/>
	<polygon class="st3" points="562,154.1 560.2,153 560.2,166.4 562,167.4 	"/>
	<polygon class="st3" points="556.3,208.5 556.3,194.8 554.3,194 554.3,207.8 	"/>
	<polygon class="st3" points="554.3,179.1 554.3,192.9 556.3,193.7 556.3,180.1 	"/>
	<polygon class="st3" points="550.3,147 548.2,145.7 548.2,159.8 550.3,161 	"/>
	<polygon points="434.5,295.8 477.6,295.7 477.6,249.5 434.5,252.7 	"/>
	<polygon class="st3" points="477.5,295.1 551.5,295.1 551.5,259.2 477.5,248.3 	"/>
	<polygon class="st1" points="477.5,253.2 556.5,263.6 556.5,195.3 477.5,162.1 	"/>
	<polygon class="st4" points="425.7,257.1 477.5,253.7 477.5,161.6 425.7,172.4 	"/>
	<path class="st5" d="M557,195.3h-0.5l0.2-0.5l-79-33.2l-0.2,0.5H477v91.1h0.5v0.5l79,10.4v-0.5h0.5V195.3z M516.5,217.9l-12.2-3.4
		v-19.8l12.2,4.2v18.9V217.9z M517.5,199.3l12.2,4.2v18l-12.2-3.4V199.3z M503.3,214.2l-12.2-3.4v-20.6l12.2,4.2V214.2L503.3,214.2z
		 M503.3,215.2v19.9l-12.2-2.5v-20.7L503.3,215.2z M504.3,215.5l12.2,3.4v18.9l-12.2-2.5v-19.7V215.5z M517.5,219.1l12.2,3.4v18
		l-12.2-2.5V219.1L517.5,219.1z M530.7,222.7l12.2,3.4v17l-12.2-2.5V222.7L530.7,222.7z M530.7,221.7v-17.8l12.2,4.2v17L530.7,221.7
		z M530.7,202.7V185l12.2,5.1v17L530.7,202.7z M529.7,202.4l-12.2-4.2v-18.8l12.2,5.1V202.4L529.7,202.4z M516.5,197.8l-12.2-4.2
		v-19.7l12.2,5.1V197.8L516.5,197.8z M503.3,193.2l-12.2-4.2v-20.6l12.2,5.1v19.9V193.2z M490.1,188.6l-12.1-4.1v-21.7l12.2,5.1
		v20.8L490.1,188.6z M490.1,189.7v20.8l-12.1-3.2v-21.7L490.1,189.7z M490.1,211.6v20.8L478,230v-21.7L490.1,211.6z M490.1,233.5
		v20.9l-12.1-1.6v-21.7L490.1,233.5z M491.1,233.7l12.2,2.5v19.9l-12.2-1.6V233.7L491.1,233.7z M504.3,236.4l12.2,2.5v19l-12.2-1.6
		V236.4L504.3,236.4z M517.5,239.1l12.2,2.5v18l-12.2-1.6V239.1L517.5,239.1z M530.7,241.8l12.2,2.5v17.1l-12.2-1.6V241.8
		L530.7,241.8z M543.9,244.5l12.2,2.5v16.1l-12.2-1.6V244.5z M543.9,243.5v-17l12.2,3.4V246L543.9,243.5z M543.9,225.5v-17l12.2,4.2
		v16.1L543.9,225.5z M543.9,207.5v-17l12.2,5.1v16.1L543.9,207.5z"/>
	<polygon class="st1" points="500.7,293.9 531.2,294 531.2,268.6 500.7,265.6 	"/>
	<polygon class="st6" points="531.2,277.1 531.2,268.6 500.7,265.6 500.7,277.9 	"/>
	<g class="st7">
		<polygon class="st8" points="531.2,271.3 531.2,268.6 526.4,268.1 517.2,293.9 523.1,293.9 		"/>
		<polygon class="st8" points="500.9,293.9 510.6,293.9 520,267.5 510.7,266.6 		"/>
	</g>
	<polygon class="st3" points="516.9,294.3 517.6,294.3 517.6,267.3 516.9,267.2 	"/>
	<polygon class="st9" points="437.6,92.4 430.5,94.8 429.8,94.4 436.9,92 	"/>
	<polygon class="st9" points="423,84.1 415.8,86.7 415,86.3 422.3,83.7 	"/>
	<polygon class="st9" points="405.5,74.1 398.1,77 397.2,76.5 404.6,73.6 	"/>
	<polygon class="st1" points="387.2,256.9 312.5,262.1 312.5,113.4 387.2,85.1 	"/>
	<polygon class="st10" points="435.7,264.4 387.2,260.2 387.2,85.1 435.7,110.1 	"/>
	<rect x="364" y="111.6" class="st11" width="0" height="0"/>
	<path class="st12" d="M328.4,221.3V184l15.7-3.6v38.5L328.4,221.3z M363,216.2v-40l-17,3.8v38.7L363,216.2z M365,215.9l8-1.2v-40.9
		l-8,1.8V215.9L365,215.9z M326.4,184.5L320,186v36.6l6.4-0.9v-37.3V184.5z"/>
	<path class="st12" d="M365,152.4l8-2.1v-40.8l-8,2.8V152.4z M344,119.5l-15.6,5.5v37.2L344,158v-38.4V119.5z M363,112.9l-17,5.9
		v38.6l17-4.5V113V112.9z M326.4,125.6l-6.4,2.2v36.6l6.4-1.7v-37V125.6z"/>
	<path class="st12" d="M328.4,164.3v17.6l15.7-3.6v-18.2L328.4,164.3z M365,173.6l8-1.8v-19.4l-8,2.1V173.6z M346,177.9l17-3.9v-19
		l-17,4.5v18.3V177.9z M326.3,164.8l-6.4,1.7v17.3l6.4-1.5V164.8z"/>
	<rect x="364" y="111.6" class="st11" width="0" height="0"/>
	<polygon points="344,119.6 328.4,125 328.4,130.9 344,136.4 	"/>
	<polygon points="326.4,130.2 326.4,125.7 320.7,127.6 320,127.9 320,127.9 	"/>
	<polygon points="363,113.1 346,118.9 346,137.1 363,143.1 	"/>
	<polygon points="373,109.6 365,112.4 365,143.8 373,146.6 	"/>
	<polygon points="344,160.2 328.4,164.3 328.4,168.8 344,173.1 	"/>
	<polygon points="326.4,168.3 326.4,164.8 320.6,166.4 320,166.5 320,166.6 	"/>
	<polygon points="363,174 363,155.1 346,159.6 346,173.6 354.6,175.9 	"/>
	<polygon points="365,154.6 365,173.6 373,171.8 373,152.5 	"/>
	<polygon points="344,180.4 328.4,184 328.4,187.8 344,191.4 	"/>
	<polygon points="326.4,187.3 326.4,184.4 320,185.9 	"/>
	<polygon points="363,176.2 346,180 346,191.9 363,195.8 	"/>
	<polygon points="373,173.9 365,175.7 365,196.2 373,198.1 	"/>
	<g class="st13">
		<polygon class="st8" points="328.4,125 328.4,162.2 336.7,160 344,138.7 344,119.6 		"/>
		<polygon class="st8" points="344,178.1 343.9,178.4 344,178.4 		"/>
		<polygon class="st8" points="346,132.9 351.5,117 346,118.9 		"/>
		<polygon class="st8" points="328.4,184.3 328.5,183.9 328.4,184 		"/>
		<polygon class="st8" points="320,183.8 326.4,182.4 326.4,164.8 320,166.5 		"/>
		<polygon class="st8" points="363,122.9 351.6,156 363,153 		"/>
		<polygon class="st8" points="328.4,164.3 328.4,181.9 329.2,181.7 335.9,162.3 		"/>
		<polygon class="st8" points="346,180 346,213.7 358.6,177.1 		"/>
		<polygon class="st8" points="320,164.5 326.4,162.8 326.4,125.7 324.4,126.4 320,139.3 		"/>
		<polygon class="st8" points="373,109.5 366.8,111.7 365,117 365,152.4 367.3,151.8 373,135.1 		"/>
		<polygon class="st8" points="363,155 350.8,158.3 346,172.3 346,177.9 359.4,174.9 363,164.3 		"/>
		<polygon class="st8" points="365,154.5 365,158.5 366.5,154.1 		"/>
		<polygon class="st8" points="326.4,190.1 326.4,184.4 320,185.9 320,208.7 		"/>
		<polygon class="st8" points="344,180.4 343.2,180.6 329.2,221.1 344,218.9 		"/>
	</g>
	<polygon class="st5" points="390.8,148.8 433.3,164.3 433.3,96.3 390.8,72.9 	"/>
	<polygon points="394.7,147 430.1,160.2 430.1,97.5 394.7,78.2 	"/>
	<polygon class="st14" points="436.4,92.6 438.4,93.7 438.4,92.2 436.4,91.1 	"/>
	<polygon class="st14" points="421.7,84.3 423.9,85.5 423.9,84 421.7,82.8 	"/>
	<polygon class="st14" points="404.1,74.3 406.4,75.6 406.4,74 404.1,72.7 	"/>
	<polygon points="390.8,167.3 433.3,180.8 433.3,176.9 390.8,162.9 	"/>
	<polygon points="390.8,192 433.3,202.9 433.3,199 390.8,187.7 	"/>
	<polygon class="st1" points="61.3,269.9 38.6,272.4 38.6,210.5 61.3,201.1 	"/>
	<polygon class="st4" points="86.6,272.4 61.3,271.5 61.3,201.1 86.6,204.3 	"/>
	<polygon class="st1" points="161.6,295.1 78.1,295.1 78.1,192.7 161.6,157.6 	"/>
	<polygon class="st4" points="218.2,295.1 161.6,295.1 161.6,157.6 218.2,169.9 	"/>
	<polygon points="161.6,168.6 76.1,201.6 76.1,189.3 161.6,151.9 	"/>
	<polygon points="161.6,206 76.1,229.3 76.1,224.6 161.6,199.6 	"/>
	<polygon points="227.5,181.8 161.6,168.6 161.6,151.9 227.5,166.8 	"/>
	<polygon points="227.5,215.3 161.6,206 161.6,199.6 227.5,209.6 	"/>
	<polygon class="st15" points="124,294.5 181.2,294.5 181.2,252.8 124,248.8 	"/>
	<polygon class="st1" points="124,294.5 32.3,294.7 32.3,263.1 124,248.2 	"/>
	<polygon class="st16" points="124,248 32.2,262.9 32.2,239.7 124,214 	"/>
	<polygon points="32.2,242.8 118.2,248.7 124,247.8 124,216.3 32.2,241.3 	"/>
	<polygon class="st8" points="124,225.6 32.2,247.4 32.2,248.4 124,226.7 124,226.1 	"/>
	<polygon class="st8" points="32.2,254.7 124,235.9 124,235.3 124,234.8 32.2,253.7 	"/>
	<g class="st7">
		<polygon class="st8" points="89.7,223.6 79.3,226.5 66.7,257.3 76.6,255.7 		"/>
		<polygon class="st8" points="43.9,261 53.8,259.4 65.7,230.3 55.3,233.2 		"/>
		<polygon class="st8" points="101.6,220.2 97,221.5 83.5,254.6 87.8,253.9 		"/>
	</g>
	<polygon class="st6" points="124,218.5 28.2,243.8 28.2,236.6 124,207.7 	"/>
	<polygon points="124,248.8 181.2,252.8 181.2,220.4 124,213.4 	"/>
	<polygon class="st8" points="181.2,240.9 181.2,239.9 124,234.8 124,235.3 124,235.8 	"/>
	<polygon class="st8" points="181.2,231.5 124,225.6 124,226.1 124,226.6 181.2,232.5 	"/>
	<g class="st7">
		<polygon class="st8" points="125.1,248.9 138.1,249.8 150.1,216.6 137.3,215.1 		"/>
		<polygon class="st8" points="167.7,218.8 161.3,218 149.5,250.6 156,251 		"/>
		<polygon class="st8" points="181.2,220.4 180.8,220.4 169.4,252 181.2,252.8 		"/>
	</g>
	<polygon class="st6" points="124,253.7 28.2,267.4 28.2,260.1 124,242.9 	"/>
	<polygon class="st6" points="185.1,257.4 124,253.7 124,242.9 185.1,247.7 	"/>
	<polygon class="st6" points="185.1,225.5 124,218.5 124,207.7 185.1,215.7 	"/>
	<polygon class="st3" points="124,217.5 28.2,243.1 28.2,243.8 124,218.4 	"/>
	<polygon class="st3" points="124,243.8 28.2,260.7 28.2,260.1 124,242.9 	"/>
	<polygon class="st3" points="185.1,225.5 124.1,218.5 124.1,217.5 185.1,224.6 	"/>
	<polygon class="st3" points="124.1,243.8 185.1,248.5 185.1,247.7 124.1,242.9 	"/>
	<polygon class="st3" points="89.7,294.7 53.5,294.8 53.5,273.5 89.7,269.9 	"/>
	<polygon points="89.7,274.6 89.7,269.9 53.5,273.5 53.5,273.5 	"/>
	<polygon points="70,294.7 68.9,294.7 68.9,272 70,271.9 	"/>
	<path d="M67.3,284.8c0.1,0.5-0.2,1-0.6,1.2c-0.4-0.2-0.7-0.6-0.6-1.1c-0.1-0.5,0.2-1,0.6-1.2C67.1,283.9,67.4,284.3,67.3,284.8z"/>
	<path d="M72.3,284.6c0.1,0.5-0.2,1-0.6,1.2c-0.4-0.2-0.7-0.6-0.6-1.1c-0.1-0.5,0.2-1,0.6-1.2C72.1,283.7,72.4,284.1,72.3,284.6z"/>
	<ellipse transform="matrix(0.9198 -0.3923 0.3923 0.9198 -95.5654 70.2133)" cx="124" cy="268.9" rx="8.2" ry="11.8"/>
	<ellipse transform="matrix(0.4462 -0.8949 0.8949 0.4462 -170.2741 271.2216)" cx="134" cy="273.2" rx="9.2" ry="6.3"/>
	<ellipse transform="matrix(0.4909 -0.8712 0.8712 0.4909 -181.7261 242.7565)" cx="116.9" cy="276.9" rx="3.9" ry="5.7"/>
	<path class="st17" d="M127.2,294.4c0.3,0,0.5-0.2,0.5-0.5c0.2-0.4,0.3-0.8,0.4-1.3c0,0,0.1-0.4,0.1-1.2s0.2-1.8,0.2-3.1
		s0-2.8-0.1-4.4c-0.1-1.6-0.4-3.3-0.7-4.9c-0.3-1.7-0.7-3.3-1.1-4.8l-0.2-0.6l-0.2-0.6l-0.3-1.1l-0.7-1.9l-0.3-0.9l-0.3-0.8
		l-0.5-1.2l-0.5-1.1c-0.4-1-1-1.7-1.1-1.6h-0.1c-0.2,0.1,0,0.9,0.5,1.9l0.4,1.1l0.5,1.2l0.3,0.8l0.3,0.8l0.6,1.9l0.3,1.1l0.2,0.5
		v0.6c0.4,1.5,0.8,3.1,1,4.8c0.2,1.6,0.4,3.2,0.5,4.8c0.1,1.5,0.1,3,0.1,4.2s-0.1,2.3-0.2,3l-0.2,1.1c-0.2,1-0.1,1.9,0.1,1.9h0.3
		L127.2,294.4z"/>
	<path class="st17" d="M128.1,282.9c0-0.3-0.2-0.6-0.5-0.8l-0.4-0.3L126,281l-0.8-0.5l-0.9-0.5h-0.5l-0.5-0.3l-0.5-0.3l-0.5-0.3
		l-4-1.7l-0.4-0.2l-0.3-0.2l-0.6-0.3l-0.5-0.2l-0.3-0.2h-0.6c0,0.1,0,0.2,0.1,0.3l0.2,0.2l0.3,0.2l0.5,0.3l0.6,0.3l0.3,0.2l0.4,0.2
		l3.9,1.8l0.5,0.3l0.5,0.3l0.5,0.3h0.5l0.9,0.5l0.8,0.5l1.2,0.8l0.4,0.3c0.2,0.3,0.6,0.4,0.9,0.3V282.9L128.1,282.9z"/>
	<path class="st17" d="M120.1,278.3l-0.3-0.2h-0.5l-1.2,0.2h-1.7l-0.2,0.2h3.8c0.1,0,0.2-0.1,0.2-0.2c0,0,0-0.1,0-0.1l0,0
		L120.1,278.3z"/>
	<path class="st17" d="M125.2,271.3c0.2,0.1,0.3,0,0.4-0.2c0,0,0,0,0,0l0.3-0.8c0.2-0.6,0.4-1.2,0.5-1.8c0.1-0.6,0.2-1.2,0.3-1.8
		v-0.8c0.1-0.2,0-0.3-0.2-0.4c0,0,0,0,0,0h-0.1c-0.2,0-0.3,0.2-0.2,0.4c0,0,0,0,0,0v0.8c-0.1,0.6-0.2,1.2-0.4,1.8
		c-0.2,0.6-0.4,1.1-0.6,1.7l-0.3,0.7c-0.1,0.1,0,0.3,0.1,0.4L125.2,271.3L125.2,271.3z"/>
	<path class="st17" d="M127.7,284.1c0-0.1,0-0.3,0.1-0.4l0.4-0.4h0.1l0.3-0.2l1-0.8c1-0.9,1.8-2,2.5-3.2c0.4-0.6,0.7-1.3,1-2
		c0.3-0.7,0.5-1.3,0.6-1.8l0.4-1.3v-0.5c0-0.3,0.1-0.6,0.4-0.8h0.1c0.2,0.3,0.2,0.6,0.1,0.9v0.4l-0.3,1.4c-0.2,0.6-0.4,1.2-0.6,1.9
		c-0.3,0.7-0.6,1.4-0.9,2.1c-0.3,0.7-0.7,1.4-1.2,2l-1.3,1.5l-1.1,1l-0.3,0.2h-0.1l-0.6,0.2h-0.4v-0.2H127.7z"/>
	<path class="st17" d="M132.7,278.9c0.2,0,0.3-0.2,0.2-0.4c0,0,0,0,0,0v-0.2l-0.2-0.6l-0.3-0.9l-0.3-1l-0.3-1l-0.3-0.8l-0.3-0.8
		c0-0.1-0.2-0.3-0.3-0.3h-0.1c-0.1,0.1-0.1,0.3,0,0.4l0.3,0.8l0.3,0.8l0.3,1l0.3,1l0.2,0.9l0.2,0.6v0.2
		C132.4,278.7,132.6,278.9,132.7,278.9h0.2H132.7z"/>
	<path class="st17" d="M133.9,276.1c0.1,0.1,0.3,0.1,0.4,0l0.7-0.4l1.3-1.1l1.2-1.2l0.4-0.4v-0.2c0.1-0.1,0.2-0.3,0.1-0.4l0,0
		l-0.4,0.2v0.2l-0.4,0.4l-1.2,1.1l-1.3,1l-0.6,0.4C133.9,275.7,133.8,275.9,133.9,276.1C133.9,276.1,133.9,276.1,133.9,276.1v0.2
		V276.1z"/>
	<polygon class="st18" points="304,57.2 302.6,57.9 260.5,37.6 262,36.7 	"/>
	<polygon points="260.6,37.7 262,36.9 262,16 260.6,16.9 	"/>
	<polygon class="st8" points="262,36.9 303.9,57.2 303.9,38 262,16 	"/>
	<polygon class="st1" points="192.5,294.5 251.3,294.4 251.3,32.8 192.5,69.8 	"/>
	<polygon class="st10" points="309,295.1 251.3,295.1 251.3,32.8 309,60.7 	"/>
	<path class="st12" d="M298.5,107.4l4.8,1.8v26.5l-4.8-1.6V107.4z M291.5,190.7l5,1v-26.9l-5-1.3V190.7L291.5,190.7z M289.5,219.8
		v-27.4l-5.2-1.1V219L289.5,219.8z M284.3,248.8l5.2,0.5v-27.4l-5.2-0.8V248.8L284.3,248.8z M291.5,249.4l5,0.4v-26.9l-5-0.7v27.4
		V249.4z M291.5,161.2l5,1.3v-27l-5-1.6V161.2z M298.5,105.1l4.8,1.8V80.6l-4.8-2.1v26.8V105.1z M291.5,131.7l5,1.6v-26.6l-5-1.9
		V132V131.7z M298.5,192l4.8,1v-26.4l-4.8-1.3v26.9V192z M296.5,77.4l-5-2.2v27.2l5,1.9V77.6V77.4z M296.5,220.7v-27l-5-1V220
		L296.5,220.7z M298.5,250l4.8,0.4v-26.5l-4.8-0.7V250L298.5,250z M298.5,221l4.8,0.7v-26.4l-4.8-1v26.9V221z M298.5,163l4.8,1.3
		v-26.4l-4.8-1.6v26.9V163z M274.8,128.5l-5.6-1.8v28.6l5.6,1.5v-28.1V128.5z M269.2,96.1v28.5l5.6,1.8v-28L269.2,96.1z M282.3,71.2
		l-5.5-2.2v28l5.5,2.1V71.2L282.3,71.2z M282.3,218.6v-27.7l-5.5-1.1V218L282.3,218.6z M282.3,188.7V161l-5.5-1.4v28.2L282.3,188.7z
		 M289.5,190.2v-27.3l-5.2-1.4v27.8L289.5,190.2z M284.3,159.3l5.2,1.4v-27.3l-5.2-1.7V159.3L284.3,159.3z M284.3,101.9v27.6
		l5.2,1.7V104L284.3,101.9z M289.5,74.4l-5.2-2.3v27.8l5.2,2V74.4L289.5,74.4z M276.8,248.2l5.5,0.5v-27.9l-5.5-0.8V248.2z
		 M276.8,129.3v28.2l5.5,1.4v-27.8L276.8,129.3z M276.8,99.2v28l5.5,1.8v-27.7L276.8,99.2z M274.8,159l-5.6-1.5v28.6l5.6,1.2V159
		L274.8,159z M269.2,247.5l5.6,0.5v-28.3l-5.6-0.8v28.7V247.5z M274.8,217.6v-28.2l-5.6-1.2v28.6L274.8,217.6z M274.8,68l-5.6-2.5
		v28.6l5.6,2.1V68.1V68z M267.2,187.8l-5.9-1.2v29.1l5.9,0.9V187.8L267.2,187.8z M261.3,246.8l5.9,0.5v-28.7l-5.9-0.9V246.8
		L261.3,246.8z M267.2,157l-5.9-1.5v29.1l5.9,1.2V157L267.2,157z M267.2,126.2l-5.9-1.9v29.1l5.9,1.6V126.2L267.2,126.2z
		 M267.2,64.7l-5.9-2.6v29l5.9,2.2V64.7L267.2,64.7z M267.2,95.5l-5.9-2.2v28.9l5.9,1.9V95.5L267.2,95.5z"/>
	<path class="st16" d="M235.3,128.3l6-2.5v28.5l-6,2.1V128.3z M235.3,247.1l6-0.7v-28.7l-6,1.2V247V247.1z M235.3,216.9l6-1.2v-28.6
		l-6,1.6V216.9L235.3,216.9z M235.3,186.7l6-1.6v-28.7l-6,2.1v28.1V186.7z M235.3,96l6-3V64.5l-6,3.4v28V96z M227.6,248.1l5.7-0.7
		v-28.2l-5.7,1.1v27.6V248.1z M226.6,71.8L226.6,71.8z M233.3,69.1l-5.7,3.2v27.4l5.7-2.8V69V69.1z M233.3,217.3v-28l-5.7,1.5v27.6
		L233.3,217.3z M227.6,188.8l5.7-1.5v-28l-5.7,1.9V188.8z M227.6,159.1l5.7-1.9v-28.1l-5.7,2.4V159V159.1z M225.6,189.3v-27.5
		l-5.4,1.8v27L225.6,189.3z M227.6,129.4l5.7-2.4V99.1l-5.7,2.8v27.4V129.4z M220.2,248.9l5.4-0.6v-27.6l-5.4,1v27.1V248.9z
		 M225.6,218.8v-27.5l-5.4,1.4v27L225.6,218.8z M235.3,126.2l6-2.5V95.1l-6,3v28V126.2z M225.6,73.5l-5.4,3.1v26.8l5.4-2.7V73.4
		V73.5z M218.2,191.3v-27l-5.1,1.8v26.5L218.2,191.3z M213.1,137.7V164l5.1-1.8v-26.8L213.1,137.7z M213.1,109.2v26.3l5.1-2.1v-26.9
		L213.1,109.2z M218.2,77.8l-5.1,2.9V107l5.1-2.5V77.6V77.8z M211.1,167l-4.8,1.7v25.9l4.8-1.3v-26.5V167z M213.1,249.9l5.1-0.6
		v-27.2l-5.1,1v26.5V249.9z M218.2,220.3v-27.1l-5.1,1.4v26.5L218.2,220.3z M220.2,161.7l5.4-1.9v-27.5l-5.4,2.3V161.7L220.2,161.7z
		 M220.2,105.7v26.8l5.4-2.3v-27.3L220.2,105.7z M211.1,81.8l-4.8,2.8v25.8l4.8-2.4V81.8L211.1,81.8z M204.3,197l-4.6,1.2v25.5
		l4.6-0.9V197z M211.1,138.4l-4.8,2v25.9l4.8-1.7V138.4z M206.3,112.5v25.8l4.8-2V110L206.3,112.5z M206.3,250.5l4.8-0.6v-26.4
		l-4.8,0.9v26V250.5z M211.1,221.5v-26.4l-4.8,1.3v26L211.1,221.5z M199.6,251.3l4.6-0.5v-26l-4.6,0.9v25.5V251.3z M204.2,169.2
		l-4.6,1.6v25.4l4.6-1.2v-25.9V169.2z M204.2,113.5l-4.6,2.3V141l4.6-1.9v-25.7V113.5z M204.2,141.3l-4.6,1.9v25.4l4.6-1.6v-25.8
		V141.3z M204.2,85.6l-4.6,2.6v25.3l4.6-2.3V85.6L204.2,85.6z"/>
	<polygon points="282.3,101.3 276.8,99.2 276.8,127.2 282.3,129 	"/>
	<polygon points="282.3,71.3 276.8,69 276.8,97 282.3,99.1 	"/>
	<polygon points="274.8,68.1 269.2,65.6 269.2,94.1 274.8,96.3 	"/>
	<polygon points="274.8,98.4 269.2,96.3 269.2,124.8 274.8,126.6 	"/>
	<polygon points="269.2,155.5 274.8,157 274.8,128.7 269.2,126.9 	"/>
	<polygon points="276.8,157.5 282.3,158.9 282.3,131.1 276.8,129.3 	"/>
	<polygon points="296.5,77.6 291.5,75.4 291.5,102.6 296.5,104.5 	"/>
	<polygon points="303.3,107.1 303.3,80.6 298.5,78.5 298.5,105.3 	"/>
	<polygon points="289.5,74.5 284.3,72.2 284.3,99.9 289.5,101.9 	"/>
	<polygon points="291.5,131.9 296.5,133.6 296.5,106.7 291.5,104.8 	"/>
	<polygon points="284.3,129.6 289.5,131.3 289.5,104 284.3,102 	"/>
	<polygon points="274.8,159 269.2,157.5 269.2,186.2 270.6,186.5 274.8,178 	"/>
	<polygon points="289.5,133.4 284.3,131.7 284.3,159.2 289.5,148.8 	"/>
	<polygon points="282.3,161 276.8,159.6 276.8,174.1 282.3,163.2 	"/>
	<polygon points="269.2,188.2 269.2,189.3 269.6,188.3 	"/>
	<polygon points="303.3,109.3 298.5,107.4 298.5,130.8 303.3,121.2 	"/>
	<polygon points="291.5,134 291.5,144.8 296.1,135.5 	"/>
	<polygon points="267.2,193.3 267.2,187.8 261.3,186.6 261.3,205 	"/>
	<polygon points="267.2,95.5 261.3,93.3 261.3,122.2 267.2,124.1 	"/>
	<polygon points="267.2,126.2 261.3,124.3 261.3,153.4 267.2,154.9 	"/>
	<polygon points="261.3,184.6 267.2,185.8 267.2,157 261.3,155.5 	"/>
	<polygon points="267.2,64.7 261.3,62.1 261.3,91.1 267.2,93.4 	"/>
	<polygon points="218.2,77.6 213.1,80.5 213.1,106.8 218.2,104.3 	"/>
	<polygon points="218.2,106.5 213.1,109.1 213.1,135.4 218.2,133.2 	"/>
	<polygon points="220.2,132.4 225.6,130.1 225.6,102.9 220.2,105.5 	"/>
	<polygon points="206.3,166.3 211.1,164.7 211.1,138.4 206.3,140.4 	"/>
	<polygon points="211.1,81.7 206.3,84.4 206.3,110.2 211.1,107.8 	"/>
	<polygon points="211.1,110 206.3,112.4 206.3,138.2 211.1,136.2 	"/>
	<polygon points="225.6,73.4 220.2,76.5 220.2,103.3 225.6,100.6 	"/>
	<polygon points="241.3,92.9 241.3,64.5 235.3,67.9 235.3,95.9 	"/>
	<polygon points="233.3,69 227.6,72.3 227.6,99.7 233.3,96.9 	"/>
	<polygon points="227.6,129.3 233.3,126.9 233.3,99.1 227.6,101.9 	"/>
	<polygon points="226.6,71.7 226.6,71.7 226.6,71.7 	"/>
	<polygon points="213.1,164 218.2,162.2 218.2,135.4 213.1,137.5 	"/>
	<polygon points="204.3,113.4 199.6,115.7 199.6,141 204.3,139.1 	"/>
	<polygon points="225.6,132.3 220.2,134.6 220.2,161.5 221.2,161.2 225.6,152.3 	"/>
	<polygon points="218.2,164.3 213.1,166.1 213.1,177.2 218.2,167 	"/>
	<polygon points="241.3,95.1 235.3,98.1 235.3,126.1 239.7,124.2 241.3,121 	"/>
	<polygon points="235.3,128.3 235.3,133 238.3,127 	"/>
	<polygon points="233.3,129.1 227.6,131.5 227.6,148.3 233.3,137 	"/>
	<polygon points="199.6,168.6 204.3,167 204.3,141.2 199.6,143.2 	"/>
	<polygon points="204.3,85.6 199.6,88.2 199.6,113.5 204.3,111.2 	"/>
	<polygon points="204.3,169.1 199.6,170.7 199.6,196.1 204.2,194.9 204.3,194.9 	"/>
	<polygon points="199.6,204.1 203,197.3 199.6,198.2 	"/>
	<polygon points="211.1,166.8 206.3,168.4 206.3,190.9 211.1,181.2 	"/>
	<polygon class="st19" points="224,148.3 247.5,154.4 247.5,52.8 224,42.3 	"/>
	<polygon points="226.3,146 245.3,151 245.3,54.6 226.3,46.3 	"/>
	<polygon class="st5" points="221.9,149.1 224,148.3 224,42.3 221.9,43.7 	"/>
	<polygon class="st20" points="221.9,149.1 223.9,148.3 247.5,154.4 245.4,155.1 	"/>
	<polygon class="st21" points="226.3,103.5 245.3,77.5 245.3,54.6 240.2,52.3 226.3,71.3 	"/>
	<polygon class="st21" points="245.3,116.7 245.3,104.4 226.3,130.3 226.3,142.6 	"/>
	<ellipse transform="matrix(0.3923 -0.9198 0.9198 0.3923 -97.674 368.8835)" cx="230.4" cy="258.4" rx="16.9" ry="11.7"/>
	<ellipse transform="matrix(0.8949 -0.4462 0.4462 0.8949 -95.0242 124.1036)" cx="216" cy="263.8" rx="9" ry="13"/>
	<ellipse transform="matrix(0.8712 -0.4909 0.4909 0.8712 -101.6054 152.7836)" cx="240.4" cy="270" rx="8.1" ry="5.6"/>
	<path class="st17" d="M225.5,294.4c-0.4-0.1-0.6-0.3-0.7-0.7c-0.3-0.6-0.5-1.2-0.6-1.9c0,0-0.1-0.6-0.2-1.7s-0.2-2.6-0.3-4.4
		s0-3.9,0.2-6.2c0.2-2.3,0.5-4.7,0.9-7c0.4-2.4,1-4.7,1.6-6.9l0.2-0.8l0.2-0.8l0.5-1.5l1-2.8l0.5-1.2l0.4-1.1l0.7-1.8l0.7-1.5
		c0.6-1.4,1.4-2.4,1.6-2.3h0.2c0.3,0.1,0,1.3-0.7,2.7l-0.6,1.5l-0.7,1.7l-0.4,1.1l-0.4,1.2l-0.9,2.7l-0.4,1.5l-0.2,0.8l-0.2,0.8
		c-0.6,2.1-1.1,4.5-1.5,6.8c-0.4,2.3-0.7,4.6-0.8,6.9c-0.1,2-0.2,4-0.1,6c0.1,1.8,0.2,3.2,0.3,4.2s0.2,1.6,0.2,1.6s0.2,2.7-0.2,2.8
		h-0.5L225.5,294.4z"/>
	<path class="st17" d="M224.4,278.1c0-0.5,0.3-0.9,0.8-1.1l0.6-0.4l1.7-1.1l1.2-0.7l1.3-0.8l0.3-0.2l0.4-0.2l0.7-0.4l0.7-0.4
		l0.8-0.4l5.7-2.5l0.5-0.2l0.5-0.2l0.8-0.4l0.7-0.3l0.4-0.2l0.4-0.2h0.5c0,0.2-0.1,0.3-0.2,0.4l-0.3,0.3l-0.4,0.3l-0.7,0.4l-0.8,0.4
		l-0.5,0.2l-0.6,0.3l-5.6,2.6l-0.7,0.4l-0.7,0.4l-0.7,0.4l-0.4,0.2l-0.3,0.2l-1.3,0.8l-1.1,0.7l-1.6,1.1l-0.6,0.5
		c-0.3,0.4-0.8,0.5-1.3,0.4L224.4,278.1z"/>
	<path class="st17" d="M235.7,271.5c0-0.2,0.2-0.3,0.4-0.2c0,0,0,0,0,0h0.7l1.7,0.3l1.7,0.2h0.8c0.2,0,0.3,0.1,0.3,0.3l0,0
		c0,0.2-0.2,0.3-0.4,0.2c0,0,0,0,0,0h-2.5l-1.7-0.2H236c-0.2,0-0.3-0.1-0.3-0.3c0,0,0-0.1,0-0.1V271.5L235.7,271.5z"/>
	<path class="st17" d="M228.5,261.5c-0.3,0.1-0.5-0.1-0.6-0.4c0,0,0,0,0,0l-0.4-1.1c-0.3-0.8-0.5-1.7-0.7-2.5
		c-0.2-0.9-0.4-1.7-0.5-2.6v-1.2c-0.1-0.2,0-0.5,0.2-0.6h0.1c0.2,0.1,0.3,0.3,0.3,0.5v1.2c0.2,0.8,0.4,1.7,0.6,2.5
		c0.2,0.8,0.5,1.6,0.8,2.4l0.5,1.1c0.1,0.2,0.1,0.4-0.1,0.6h-0.2L228.5,261.5z"/>
	<path class="st17" d="M224.9,279.7c0.1-0.2,0-0.4-0.1-0.5l-0.6-0.6H224l-0.4-0.3l-1.5-1.2c-1.4-1.3-2.7-2.9-3.6-4.6
		c-0.5-0.9-1-1.8-1.4-2.8c-0.4-0.9-0.7-1.8-0.9-2.6s-0.4-1.4-0.5-1.9l-0.2-0.7c0-0.5-0.2-0.9-0.6-1.2h-0.1c-0.3,0.4-0.4,0.9-0.2,1.3
		v0.8c0.1,0.5,0.2,1.2,0.5,2s0.5,1.7,0.9,2.7c0.4,1,0.8,2,1.3,3c0.5,1,1.1,1.9,1.8,2.8c0.6,0.8,1.2,1.5,1.9,2.2l1.6,1.4l0.5,0.3h0.2
		l0.9,0.3c0.2,0.1,0.4,0,0.5-0.1L224.9,279.7z"/>
	<path class="st17" d="M217.8,272.4c-0.2-0.1-0.3-0.4-0.2-0.6v-0.3l0.3-0.9l0.4-1.2l0.4-1.4l0.5-1.4l0.4-1.2l0.4-1.2
		c0-0.2,0.2-0.4,0.4-0.4h0.1c0.2,0.2,0.2,0.4,0.1,0.6l-0.4,1.2l-0.4,1.2l-0.4,1.4l-0.4,1.4l-0.3,1.2l-0.2,0.9v0.3
		c0,0.3-0.2,0.5-0.5,0.5h-0.2L217.8,272.4z"/>
	<path class="st17" d="M216.1,268.4c-0.2,0.2-0.4,0.2-0.6,0.1l-0.9-0.6l-1.9-1.5l-1.7-1.7l-0.5-0.6l-0.2-0.2
		c-0.2-0.1-0.3-0.4-0.1-0.5c0,0,0,0,0-0.1h0.1c0.2-0.1,0.4,0,0.5,0.2l0.2,0.2l0.5,0.6l1.7,1.6l1.9,1.4l0.9,0.5
		C216.2,267.9,216.3,268.2,216.1,268.4l0.1,0.2L216.1,268.4z"/>
	<ellipse transform="matrix(0.3923 -0.9198 0.9198 0.3923 89.1448 680.5607)" cx="559.7" cy="272.8" rx="10.1" ry="7"/>
	<ellipse transform="matrix(0.8949 -0.4462 0.4462 0.8949 -65.1554 274.7462)" cx="550.8" cy="275.7" rx="5.4" ry="7.8"/>
	<ellipse transform="matrix(0.8712 -0.4909 0.4909 0.8712 -64.6765 313.7403)" cx="565.6" cy="280.1" rx="4.9" ry="3.4"/>
	<path class="st17" d="M556.6,294.4c-0.2,0-0.4-0.2-0.4-0.4c-0.2-0.4-0.3-0.8-0.3-1.2v-1c-0.1-0.6-0.1-1.6-0.2-2.6s0-2.4,0.1-3.7
		c0.1-1.4,0.3-2.8,0.6-4.2c0.3-1.4,0.6-2.8,1-4.2v-1l0.3-0.9l0.6-1.7l0.3-0.7l0.3-0.7l0.4-1.1l0.4-0.9c0.1-0.6,0.5-1.1,1-1.4h0.1
		c0.1,0.6-0.1,1.1-0.4,1.6l-0.4,0.9l-0.4,1l-0.2,0.6l-0.3,0.7l-0.5,1.6l-0.3,0.9v0.9c-0.3,1.3-0.6,2.7-0.9,4.1
		c-0.2,1.4-0.4,2.7-0.5,4.1c-0.1,1.2-0.1,2.4,0,3.6c0,1.1,0.1,1.9,0.2,2.5v1c0.1,0.9,0.1,1.6-0.1,1.7h-0.3L556.6,294.4z"/>
	<path class="st17" d="M555.9,284.6c0-0.3,0.2-0.6,0.5-0.7l0.4-0.3l1-0.7l0.7-0.4l0.8-0.5h0.4l0.4-0.2l0.5-0.2l0.5-0.2l3.4-1.5h0.6
		l0.5-0.2l0.4-0.2h0.8c0,0.1,0,0.1-0.1,0.2l-0.2,0.2l-0.3,0.2l-0.4,0.2l-0.5,0.2H565l-0.3,0.2l-3.3,1.6l-0.4,0.2l-0.4,0.2l-0.4,0.2
		h-0.4l-0.8,0.5l-0.7,0.4l-1,0.7l-0.4,0.3c-0.2,0.2-0.5,0.3-0.8,0.2H556L555.9,284.6z"/>
	<path class="st17" d="M562.7,280.6h0.7l1,0.2h1.5l0.2,0.2h-3.3c-0.1,0-0.2-0.1-0.2-0.2v0l0,0L562.7,280.6z"/>
	<path class="st17" d="M558.4,274.6c-0.1,0-0.3-0.1-0.3-0.2l-0.3-0.7c-0.3-1-0.6-2-0.7-3.1v-0.7c0-0.1,0-0.2,0.1-0.3h0.1
		c0.1,0,0.2,0.2,0.2,0.3v0.7c0.1,0.5,0.2,1,0.3,1.5l0.5,1.5l0.3,0.6C558.7,274.3,558.6,274.5,558.4,274.6L558.4,274.6L558.4,274.6z"
		/>
	<path class="st17" d="M556.2,285.5c0-0.1,0-0.2-0.1-0.3l-0.4-0.4h-0.1l-0.3-0.2l-0.9-0.7c-0.8-0.8-1.6-1.8-2.1-2.8l-0.8-1.7
		l-0.6-1.6l-0.3-1.1v-0.4c0-0.3-0.2-0.6-0.4-0.7h-0.1c-0.2,0.2-0.2,0.5-0.1,0.8v0.5l0.3,1.2c0.1,0.5,0.3,1,0.5,1.6
		c0.2,0.6,0.5,1.2,0.8,1.8l1.1,1.7l1.1,1.3l0.9,0.8l0.3,0.2h0.1l0.5,0.2h0.3v-0.2L556.2,285.5z"/>
	<path class="st17" d="M551.9,281.2c-0.1-0.1-0.2-0.3-0.1-0.4v-0.2l0.2-0.5l0.2-0.7l0.3-0.8l0.3-0.8l0.3-0.7l0.3-0.7
		c0-0.2,0.1-0.3,0.3-0.3h0.1c0.1,0.1,0.1,0.3,0,0.4l-0.2,0.7l-0.2,0.7l-0.2,0.8l-0.2,0.8l-0.2,0.7v0.7c0,0.2-0.1,0.3-0.3,0.3h-0.1
		H551.9z"/>
	<path class="st17" d="M550.9,278.7c-0.1,0.1-0.3,0.1-0.4,0l-0.6-0.4l-1.1-0.9l-1-1.1l-0.3-0.4h-0.1c-0.1-0.1-0.1-0.2-0.1-0.3h0.5
		l0.3,0.3l1,1l1.1,0.8l0.5,0.3c0.1,0,0.2,0.2,0.2,0.3h-0.1L550.9,278.7z"/>
	<rect x="268.9" y="211.7" class="st1" width="194.3" height="83.4"/>
	<rect x="277.6" y="218.2" width="176.9" height="76.9"/>
	<rect x="277.6" y="218.2" class="st3" width="176.9" height="40"/>
	<rect x="274.9" y="205" class="st22" width="182.3" height="24.1"/>
	<rect x="268.9" y="211.7" class="st1" width="194.3" height="21.7"/>
	<rect x="284.4" y="224" class="st1" width="1.9" height="71.1"/>
	<rect x="294.5" y="224" class="st1" width="1.9" height="71.1"/>
	<rect x="304.6" y="224" class="st1" width="1.9" height="71.1"/>
	<rect x="314.6" y="224" class="st1" width="1.9" height="71.1"/>
	<rect x="324.7" y="224" class="st1" width="1.9" height="71.1"/>
	<rect x="334.8" y="224" class="st1" width="1.9" height="71.1"/>
	<rect x="344.9" y="224" class="st1" width="1.9" height="71.1"/>
	<rect x="355" y="224" class="st1" width="1.9" height="71.1"/>
	<rect x="365.1" y="224" class="st1" width="1.9" height="71.1"/>
	<rect x="375.1" y="224" class="st1" width="1.9" height="71.1"/>
	<rect x="385.2" y="224" class="st1" width="1.9" height="71.1"/>
	<rect x="395.3" y="224" class="st1" width="1.9" height="71.1"/>
	<rect x="405.4" y="224" class="st1" width="1.9" height="71.1"/>
	<rect x="415.5" y="224" class="st1" width="1.9" height="71.1"/>
	<rect x="425.6" y="224" class="st1" width="1.9" height="71.1"/>
	<rect x="435.7" y="224" class="st1" width="1.9" height="71.1"/>
	<rect x="445.7" y="224" class="st1" width="1.9" height="71.1"/>
	<rect x="268.9" y="278.3" class="st1" width="194.3" height="2.6"/>
	<rect x="320.7" y="264" class="st4" width="90.6" height="31.2"/>
	<rect x="320.7" y="264" class="st6" width="90.6" height="7.1"/>
	<polygon class="st23" points="411.3,281.4 336.7,271 336.7,264 411.3,264 	"/>
	<rect x="344.9" y="278.5" width="42.3" height="16.6"/>
	<rect x="344.9" y="278.5" class="st6" width="42.3" height="6.5"/>
	<rect x="365.5" y="278.5" class="st3" width="1.1" height="16.6"/>
	<rect x="317.7" y="260.6" class="st1" width="96.6" height="6.6"/>
</g>
</svg>
