<?xml version="1.0" encoding="utf-8"?>
<!--Generator: Adobe Illustrator 19.2.1, SVG Export Plug-In . SVG Version: 6.00 Build 0)-->
<svg xmlns="http://www.w3.org/2000/svg" xmlns:xlink="http://www.w3.org/1999/xlink" id="Layer_1" x="0px" y="0px" enable-background="new 0 0 215.6 213.8" version="1.1" viewBox="0 0 215.6 213.8" xml:space="preserve">
    <title>
        favicon
    </title>
    <path fill="rgba(255,255,255,.3)" stroke="rgba(0,0,0,.09)" stroke-width="1" d="M215.5-0.1c-38.3,33.3-68.9,29.4-96.7,43.3c-9.5-3.5-19.9-5.5-30.7-5.5C39.4,37.7,0,77.1,0,125.8
	c0,48.7,39.4,88.1,88.1,88.1c48.7,0,88.1-39.4,88.1-88.1c0-15.3-3.9-29.6-10.7-42.1C195.5,73.4,214.7,31.8,215.5-0.1z M88.1,176.2
	c-27.8,0-50.4-22.6-50.4-50.4s22.6-50.4,50.4-50.4c0.9,0,1.8,0,2.7,0.1c-9.6,24.8-6,52.4-6,52.4c11.7-22.4,22.1-30.1,41.1-35.4
	c7.8,8.9,12.6,20.5,12.6,33.3C138.5,153.6,115.9,176.2,88.1,176.2z"/>
</svg>
