<svg xmlns="http://www.w3.org/2000/svg" xmlns:xlink="http://www.w3.org/1999/xlink" viewBox="0 0 47.7 38.5"><defs><pattern id="a" width="2" height="2" patternUnits="userSpaceOnUse" viewBox="0 0 2 2"><rect width="2" height="2" fill="none"/><g opacity="0.38" style="mix-blend-mode:darken"><rect x="0.4" y="0.4" width="1.1" height="1.11" fill="#121111" opacity="0.31" style="mix-blend-mode:multiply"/></g></pattern></defs><title>map</title><g style="isolation:isolate"><path d="M45.2,2.9C44.2,1,43-.1,40.9,1.6a4.9,4.9,0,0,1-5.4.8,6.6,6.6,0,0,0-6.9,1,3.3,3.3,0,0,1-4.2.5c-2.1-1.1-4.1-2.1-6.4-.7-0.7.4-1.2,0-1.7-.4C13.1,0,9.4-.6,6.9,1.1S2.8,8.6,4,11.2a4.4,4.4,0,0,1-.6,4.6c-2.8,3.3-4,6.8-2.8,11-1.5,3.5.7,3.6,3.2,3.3s5.2,1.3,6.6,3.9c2.8,5.1,2.8,5.2,8.2,3.8a17.4,17.4,0,0,1,2.5-.3c1.9-.2,3.4-1.2,3.6-2.9s2.1-4.1,3.8-5.6,3.2-2.3,4.7,0,1.7,0.7,2.4-.3c2-2.9,2.8-6.4,5.1-9.2s2.1-7.7,6.4-9.6c1-.4,1.2-2.6.4-3.3S45.9,4.2,45.2,2.9Z" transform="translate(-0.1 -0.1)" fill="url(#a)"/><circle cx="21.5" cy="18" r="2" fill="#cf4647" opacity="0.49" style="mix-blend-mode:lighten"/><circle cx="21.5" cy="18" r="1.3" fill="#cf4647"/></g></svg>