<svg xmlns="http://www.w3.org/2000/svg" viewBox="0 0 512 511.9"><defs><style>.cls-1{fill:#292b2c;}</style></defs><title>user</title><g id="Layer_2" data-name="Layer 2"><g id="Capa_1" data-name="Capa 1"><path class="cls-1" d="M491.65,156.26A255.33,255.33,0,1,0,512,255.9,256.13,256.13,0,0,0,491.65,156.26ZM418.14,391.5A32.11,32.11,0,0,0,408.38,378c-41.85-34.4-87-57.26-96.28-61.77a3,3,0,0,1-1.68-2.73V248.24a30.51,30.51,0,0,0,13.63-25.38V155.22a60.92,60.92,0,0,0-60.93-60.93H248.66a60.92,60.92,0,0,0-60.93,60.93v67.64a30.51,30.51,0,0,0,13.63,25.38v65.23a3,3,0,0,1-1.68,2.73c-9.23,4.51-54.33,27.37-96.28,61.77a33.46,33.46,0,0,0-9.75,13.53A210.6,210.6,0,0,1,44.36,255.9c0-116.62,94.91-211.53,211.53-211.53S467.43,139.27,467.43,255.9A210,210,0,0,1,418.14,391.5Z"/></g></g></svg>